<?xml version="1.0" encoding="UTF-8" standalone="no"?>
<!-- Created with Inkscape (http://www.inkscape.org/) -->

<svg
   xmlns:dc="http://purl.org/dc/elements/1.1/"
   xmlns:cc="http://creativecommons.org/ns#"
   xmlns:rdf="http://www.w3.org/1999/02/22-rdf-syntax-ns#"
   xmlns:svg="http://www.w3.org/2000/svg"
   xmlns="http://www.w3.org/2000/svg"
   xmlns:xlink="http://www.w3.org/1999/xlink"
   xmlns:sodipodi="http://sodipodi.sourceforge.net/DTD/sodipodi-0.dtd"
   xmlns:inkscape="http://www.inkscape.org/namespaces/inkscape"
   id="svg7384"
   sodipodi:docname="folder-saved-search.svg"
   version="1.1"
   inkscape:version="0.48.4 r9939"
   height="48"
   width="48">
  <metadata
     id="metadata90">
    <rdf:RDF>
      <cc:Work
         rdf:about="">
        <dc:format>image/svg+xml</dc:format>
        <dc:type
           rdf:resource="http://purl.org/dc/dcmitype/StillImage" />
        <dc:title>Gnome Symbolic Icon Theme</dc:title>
      </cc:Work>
    </rdf:RDF>
  </metadata>
  <sodipodi:namedview
     inkscape:cy="25.170403"
     pagecolor="#ffffff"
     borderopacity="1"
     showborder="true"
     inkscape:bbox-paths="false"
     guidetolerance="10"
     inkscape:window-width="1280"
     showguides="true"
     inkscape:object-nodes="true"
     inkscape:snap-bbox="true"
     inkscape:pageshadow="2"
     inkscape:guide-bbox="true"
     inkscape:snap-nodes="true"
     bordercolor="#666666"
     objecttolerance="10"
     id="namedview88"
     showgrid="false"
     inkscape:window-maximized="1"
     inkscape:window-x="0"
     inkscape:snap-global="true"
     inkscape:window-y="24"
     gridtolerance="10"
     inkscape:window-height="1000"
     inkscape:snap-to-guides="true"
     inkscape:current-layer="layer13"
     inkscape:zoom="15.999999"
     inkscape:cx="20.761512"
     inkscape:snap-grids="true"
     inkscape:pageopacity="1">
    <inkscape:grid
       spacingx="1px"
       spacingy="1px"
       id="grid4866"
       empspacing="2"
       enabled="true"
       type="xygrid"
       snapvisiblegridlinesonly="true"
       visible="true" />
  </sodipodi:namedview>
  <title
     id="title9167">Gnome Symbolic Icon Theme</title>
  <defs
     id="defs7386">
    <linearGradient
       id="linearGradient3842">
      <stop
         id="stop3844"
         offset="0"
         style="stop-color:#6860ba;stop-opacity:1;" />
      <stop
         style="stop-color:#9185cb;stop-opacity:1;"
         offset="0.5074119"
         id="stop3846" />
      <stop
         id="stop3848"
         offset="1"
         style="stop-color:#a399d4;stop-opacity:1;" />
    </linearGradient>
    <linearGradient
       id="linearGradient3804">
      <stop
         style="stop-color:#c4bee4;stop-opacity:1;"
         offset="0"
         id="stop3806" />
      <stop
         style="stop-color:#c4bee4;stop-opacity:0;"
         offset="1"
         id="stop3810" />
    </linearGradient>
    <linearGradient
       id="linearGradient3978">
      <stop
         style="stop-color:#becfe4;stop-opacity:0;"
         offset="0"
         id="stop3980" />
      <stop
         style="stop-color:#becfe4;stop-opacity:1;"
         offset="1"
         id="stop3984" />
    </linearGradient>
    <linearGradient
       id="linearGradient3821">
      <stop
         style="stop-color:#6087ba;stop-opacity:1;"
         offset="0"
         id="stop3823" />
      <stop
         id="stop3829"
         offset="0.57654178"
         style="stop-color:#85a5cb;stop-opacity:1;" />
      <stop
         style="stop-color:#99b4d4;stop-opacity:1;"
         offset="1"
         id="stop3825" />
    </linearGradient>
    <linearGradient
       id="linearGradient3811">
      <stop
         id="stop3813"
         offset="0"
         style="stop-color:#507099;stop-opacity:1;" />
      <stop
         style="stop-color:#7999c2;stop-opacity:1;"
         offset="0.1"
         id="stop3815" />
      <stop
         id="stop3819"
         offset="1"
         style="stop-color:#becfe4;stop-opacity:1;" />
    </linearGradient>
    <linearGradient
       id="linearGradient3767">
      <stop
         style="stop-color:#c0b1d9;stop-opacity:1;"
         offset="0"
         id="stop3769" />
      <stop
         id="stop3777"
         offset="0.155"
         style="stop-color:#b3abdb;stop-opacity:1;" />
      <stop
         id="stop3775"
         offset="0.83099997"
         style="stop-color:#927fc8;stop-opacity:1;" />
      <stop
         style="stop-color:#8675c4;stop-opacity:0.99607843;"
         offset="1"
         id="stop3771" />
    </linearGradient>
    <linearGradient
       inkscape:collect="always"
       xlink:href="#linearGradient3978"
       id="linearGradient3840"
       gradientUnits="userSpaceOnUse"
       x1="24.000002"
       y1="20.169643"
       x2="24.000002"
       y2="13.00059"
       gradientTransform="translate(442,144)" />
    <radialGradient
       inkscape:collect="always"
       xlink:href="#linearGradient3767"
       id="radialGradient3782"
       cx="7.9357204"
       cy="-24.355911"
       fx="7.9357204"
       fy="-24.355911"
       r="24"
       gradientTransform="matrix(0,1.2062971,-3.2912536,0,-67.617741,3.4452919)"
       gradientUnits="userSpaceOnUse"
       spreadMethod="pad" />
    <radialGradient
       inkscape:collect="always"
       xlink:href="#linearGradient3804"
       id="radialGradient3812"
       cx="463.44406"
       cy="147.75865"
       fx="463.44406"
       fy="147.75865"
       r="24"
       gradientTransform="matrix(0,0.15293779,-1.2695525,0,653.01826,86.141386)"
       gradientUnits="userSpaceOnUse" />
    <radialGradient
       inkscape:collect="always"
       xlink:href="#linearGradient3842"
       id="radialGradient3814"
       cx="466.00003"
       cy="169.99817"
       fx="466.00003"
       fy="169.99817"
       r="22.000299"
       gradientTransform="matrix(1.7299411,0,0,0.13076234,-340.15263,135.34573)"
       gradientUnits="userSpaceOnUse" />
    <inkscape:perspective
       sodipodi:type="inkscape:persp3d"
       inkscape:vp_x="0 : 0.5 : 1"
       inkscape:vp_y="0 : 1000 : 0"
       inkscape:vp_z="1 : 0.5 : 1"
       inkscape:persp3d-origin="0.5 : 0.33333333 : 1"
       id="perspective3851" />
    <inkscape:perspective
       sodipodi:type="inkscape:persp3d"
       inkscape:vp_x="0 : 0.5 : 1"
       inkscape:vp_y="0 : 1000 : 0"
       inkscape:vp_z="1 : 0.5 : 1"
       inkscape:persp3d-origin="0.5 : 0.33333333 : 1"
       id="perspective2944" />
    <inkscape:perspective
       sodipodi:type="inkscape:persp3d"
       inkscape:vp_x="0 : 0.5 : 1"
       inkscape:vp_y="0 : 1000 : 0"
       inkscape:vp_z="1 : 0.5 : 1"
       inkscape:persp3d-origin="0.5 : 0.33333333 : 1"
       id="perspective2902" />
    <inkscape:perspective
       id="perspective10"
       inkscape:persp3d-origin="372.04724 : 350.78739 : 1"
       inkscape:vp_z="744.09448 : 526.18109 : 1"
       inkscape:vp_y="0 : 1000 : 0"
       inkscape:vp_x="0 : 526.18109 : 1"
       sodipodi:type="inkscape:persp3d" />
    <linearGradient
       id="linearGradient3756">
      <stop
         id="stop3758"
         offset="0"
         style="stop-color:#818a96;stop-opacity:1;" />
      <stop
         id="stop3760"
         offset="1"
         style="stop-color:#697380;stop-opacity:1;" />
    </linearGradient>
    <clipPath
       id="clipPath3986"
       clipPathUnits="userSpaceOnUse">
      <rect
         style="opacity:0.425;fill:#000000;fill-opacity:1;stroke:none"
         id="rect3988"
         width="16"
         height="1"
         x="0"
         y="16"
         rx="0"
         ry="0" />
    </clipPath>
    <clipPath
       id="clipPath3982"
       clipPathUnits="userSpaceOnUse">
      <rect
         ry="0"
         rx="0"
         y="17"
         x="0"
         height="1"
         width="16"
         id="rect3984"
         style="opacity:0.43000004;fill:#000000;fill-opacity:1;stroke:none" />
    </clipPath>
    <clipPath
       id="clipPath3978"
       clipPathUnits="userSpaceOnUse">
      <rect
         style="opacity:0.43500001;fill:#000000;fill-opacity:1;stroke:none"
         id="rect3980"
         width="16"
         height="1"
         x="0"
         y="18"
         rx="0"
         ry="0" />
    </clipPath>
    <clipPath
       id="clipPath3974"
       clipPathUnits="userSpaceOnUse">
      <rect
         ry="0"
         rx="0"
         y="19"
         x="0"
         height="1"
         width="16"
         id="rect3976"
         style="opacity:0.43999999;fill:#000000;fill-opacity:1;stroke:none" />
    </clipPath>
    <clipPath
       id="clipPath3970"
       clipPathUnits="userSpaceOnUse">
      <rect
         style="opacity:0.44500002;fill:#000000;fill-opacity:1;stroke:none"
         id="rect3972"
         width="16"
         height="1"
         x="0"
         y="20"
         rx="0"
         ry="0" />
    </clipPath>
    <clipPath
       id="clipPath3966"
       clipPathUnits="userSpaceOnUse">
      <rect
         ry="0"
         rx="0"
         y="21"
         x="0"
         height="1"
         width="16"
         id="rect3968"
         style="opacity:0.45;fill:#000000;fill-opacity:1;stroke:none" />
    </clipPath>
    <clipPath
       id="clipPath3962"
       clipPathUnits="userSpaceOnUse">
      <rect
         style="opacity:0.45500004;fill:#000000;fill-opacity:1;stroke:none"
         id="rect3964"
         width="16"
         height="1"
         x="0"
         y="22"
         rx="0"
         ry="0" />
    </clipPath>
    <clipPath
       id="clipPath3958"
       clipPathUnits="userSpaceOnUse">
      <rect
         ry="0"
         rx="0"
         y="23"
         x="0"
         height="1"
         width="16"
         id="rect3960"
         style="opacity:0.46000001;fill:#000000;fill-opacity:1;stroke:none" />
    </clipPath>
    <clipPath
       id="clipPath3954"
       clipPathUnits="userSpaceOnUse">
      <rect
         style="opacity:0.46500017;fill:#000000;fill-opacity:1;stroke:none"
         id="rect3956"
         width="16"
         height="1"
         x="0"
         y="24"
         rx="0"
         ry="0" />
    </clipPath>
    <clipPath
       id="clipPath3950"
       clipPathUnits="userSpaceOnUse">
      <rect
         ry="0"
         rx="0"
         y="25"
         x="0"
         height="1"
         width="16"
         id="rect3952"
         style="opacity:0.47000002;fill:#000000;fill-opacity:1;stroke:none" />
    </clipPath>
    <clipPath
       id="clipPath3946"
       clipPathUnits="userSpaceOnUse">
      <rect
         style="opacity:0.475;fill:#000000;fill-opacity:1;stroke:none"
         id="rect3948"
         width="16"
         height="1"
         x="0"
         y="26"
         rx="0"
         ry="0" />
    </clipPath>
    <clipPath
       id="clipPath3942"
       clipPathUnits="userSpaceOnUse">
      <rect
         ry="0"
         rx="0"
         y="27"
         x="0"
         height="1"
         width="16"
         id="rect3944"
         style="opacity:0.47999998;fill:#000000;fill-opacity:1;stroke:none" />
    </clipPath>
    <clipPath
       id="clipPath3938"
       clipPathUnits="userSpaceOnUse">
      <rect
         style="opacity:0.48500001;fill:#000000;fill-opacity:1;stroke:none"
         id="rect3940"
         width="16"
         height="1"
         x="0"
         y="28"
         rx="0"
         ry="0" />
    </clipPath>
    <clipPath
       id="clipPath3934"
       clipPathUnits="userSpaceOnUse">
      <rect
         ry="0"
         rx="0"
         y="29"
         x="0"
         height="1"
         width="16"
         id="rect3936"
         style="opacity:0.49000005;fill:#000000;fill-opacity:1;stroke:none" />
    </clipPath>
    <clipPath
       id="clipPath3922"
       clipPathUnits="userSpaceOnUse">
      <rect
         style="opacity:0.49500002;fill:#000000;fill-opacity:1;stroke:none"
         id="rect3924"
         width="16"
         height="1"
         x="0"
         y="30"
         rx="0"
         ry="0" />
    </clipPath>
    <clipPath
       id="clipPath3918"
       clipPathUnits="userSpaceOnUse">
      <rect
         ry="0"
         rx="0"
         y="31"
         x="0"
         height="1"
         width="16"
         id="rect3920"
         style="opacity:0.5;fill:#000000;fill-opacity:1;stroke:none" />
    </clipPath>
  </defs>
  <g
     inkscape:label="status"
     transform="translate(-442,-144)"
     inkscape:groupmode="layer"
     id="layer9"
     style="display:inline" />
  <g
     inkscape:label="devices"
     transform="translate(-442,-144)"
     inkscape:groupmode="layer"
     id="layer10" />
  <g
     inkscape:label="apps"
     transform="translate(-442,-144)"
     inkscape:groupmode="layer"
     id="layer11" />
  <g
     inkscape:label="actions"
     transform="translate(-442,-144)"
     inkscape:groupmode="layer"
     id="layer12" />
  <g
     inkscape:label="places"
     transform="translate(-442,-144)"
     inkscape:groupmode="layer"
     id="layer13">
    <path
       style="fill:url(#radialGradient3814);fill-opacity:1"
       d="m 445.93039,150 9.13947,0 c 2.8485,0 3.33061,3.92414 7.56441,4.00714 l 23.4354,0 c 1.06927,0 1.93066,0.88595 1.93066,1.98572 l 0,3.47814 c -0.0615,-0.003 -0.11925,-0.018 -0.18164,-0.018 l -43.63732,0 c -0.0624,0 -0.12015,0.0139 -0.18164,0.018 l 0,-7.48527 c 0,-1.09977 0.86139,-1.98573 1.93066,-1.98573 z"
       id="rect4155"
       inkscape:connector-curvature="0"
       sodipodi:nodetypes="sccsscsscss" />
    <path
       style="opacity:0.02000002;fill:#000000;fill-opacity:1"
       d="M 445.9375,150 C 444.86823,150 444,150.90023 444,152 l 0,7.46875 c 0.0615,-0.004 0.1251,-0.0313 0.1875,-0.0313 l 43.625,0 c 0.0624,0 0.126,0.0283 0.1875,0.0313 L 488,156 c 0,-1.09977 -0.86823,-2 -1.9375,-2 l -23.4375,0 c -4.2338,-0.083 -4.714,-4 -7.5625,-4 l -9.125,0 z m 0.4375,1 8.5,0 c 2.35099,0 3.28383,3.96875 7.90625,3.96875 l 22.375,0 c 1.02068,0 1.84375,-0.0233 1.84375,1.15625 l 0,2.34375 c -0.0587,-0.002 -0.12794,0 -0.1875,0 l -41.625,0 c -0.0596,0 -0.1288,-0.003 -0.1875,0 l 0,-5.90625 C 445,151.69497 445.35432,151 446.375,151 z"
       id="path3816"
       inkscape:connector-curvature="0" />
    <path
       style="fill:url(#radialGradient3782);fill-opacity:1"
       d="m 1.9375,13.015625 c -1.06927,0 -1.9375,0.86899 -1.9375,1.96875 0,0 0.16794443,9.356258 0.5,13.515625 0.33416878,4.185837 1.50025,11.5 1.50025,11.5 0.1309732,1.091943 0.86823,2 1.9375,2 l 40.1245,0 c 1.06927,0 1.9375,-0.90023 1.9375,-2 0,0 1.166081,-7.314162 1.50025,-11.5 0.332056,-4.159367 0.5,-13.515625 0.5,-13.515625 0.04393,-1.098882 -0.86823,-1.96875 -1.9375,-1.96875 z"
       id="path4170"
       inkscape:connector-curvature="0"
       sodipodi:nodetypes="scsssccssss"
       transform="translate(442,144)" />
    <path
       style="opacity:0.69999999999999996;fill:url(#radialGradient3812);fill-opacity:1"
       d="M 443.9375,157.01437 C 442.86823,157.01437 442,157.90024 442,159 l 1,25 c 0,1.09977 0.86823,2 1.9375,2 l 42.125,0 c 1.06927,0 1.9375,-0.90023 1.9375,-2 l 1,-25 c 0,-1.09976 -0.86823,-1.98563 -1.9375,-1.98563 z m 0.90625,1.03125 42.3125,0 c 1.02472,0 1.84375,0.77427 1.84375,1.79813 l -0.96875,23.28125 c 0,1.02387 -0.81904,1.875 -1.84375,1.875 l -40.375,0 c -1.02471,0 -1.84375,-0.85113 -1.84375,-1.875 L 443,159.84375 c 0,-1.02386 0.81903,-1.79813 1.84375,-1.79813 z"
       id="path3800"
       inkscape:connector-curvature="0"
       sodipodi:nodetypes="sccssccssssccssccs" />
    <path
       id="path3815"
       d="m 465.00076,164 0,2.09375 c -0.90834,0.1512 -1.71589,0.52065 -2.4375,1.03125 l -1.5,-1.5 -1.4375,1.4375 1.5,1.5 c -0.5106,0.72161 -0.88005,1.52916 -1.03125,2.4375 l -2.09375,0 0,2 2.09375,0 c 0.1512,0.90834 0.52065,1.71589 1.03125,2.4375 l -1.5,1.5 1.4375,1.4375 1.5,-1.5 c 0.72161,0.5106 1.52916,0.88005 2.4375,1.03125 l 0,2.09375 2,0 0,-2.09375 c 0.90834,-0.1512 1.71589,-0.52065 2.4375,-1.03125 l 1.5,1.5 1.4375,-1.4375 -1.5,-1.5 c 0.5106,-0.72161 0.88005,-1.52916 1.03125,-2.4375 l 2.09375,0 0,-2 -2.09375,0 c -0.1512,-0.90834 -0.52065,-1.71589 -1.03125,-2.4375 l 1.5,-1.5 -1.4375,-1.4375 -1.5,1.5 c -0.72161,-0.5106 -1.52916,-0.88005 -2.4375,-1.03125 l 0,-2.09375 -2,0 z m 1,6 c 1.10457,0 2,0.89543 2,2 0,1.10457 -0.89543,2 -2,2 -1.10457,0 -2,-0.89543 -2,-2 0,-1.10457 0.89543,-2 2,-2 z"
       style="fill:#000000;fill-opacity:1;stroke:none;opacity:0.1"
       inkscape:connector-curvature="0" />
    <path
       style="fill:#000000;fill-opacity:1;stroke:none;opacity:0.1"
       d="M 23 20 L 23 21 L 25 21 L 25 20 L 23 20 z M 19.0625 21.625 L 17.625 23.0625 L 18.125 23.5625 L 19.0625 22.625 L 20.5625 24.125 C 21.28411 23.6144 22.09166 23.24495 23 23.09375 L 23 22.09375 C 22.09166 22.24495 21.28411 22.6144 20.5625 23.125 L 19.0625 21.625 z M 28.9375 21.625 L 27.4375 23.125 C 26.71589 22.6144 25.90834 22.24495 25 22.09375 L 25 23.09375 C 25.90834 23.24495 26.71589 23.6144 27.4375 24.125 L 28.9375 22.625 L 29.875 23.5625 L 30.375 23.0625 L 28.9375 21.625 z M 18.75 25.1875 C 18.441008 25.745091 18.203214 26.342389 18.09375 27 L 16 27 L 16 28 L 18.09375 28 C 18.24495 27.09166 18.6144 26.28411 19.125 25.5625 L 18.75 25.1875 z M 29.25 25.1875 L 28.875 25.5625 C 29.3856 26.28411 29.75505 27.09166 29.90625 28 L 32 28 L 32 27 L 29.90625 27 C 29.796786 26.342389 29.558992 25.745091 29.25 25.1875 z M 22.0625 28.5 C 22.021396 28.659759 22 28.827411 22 29 C 22 30.10457 22.89543 31 24 31 C 25.10457 31 26 30.10457 26 29 C 26 28.827411 25.978604 28.659759 25.9375 28.5 C 25.715537 29.362699 24.931981 30 24 30 C 23.068019 30 22.284463 29.362699 22.0625 28.5 z M 18.75 31.8125 L 17.625 32.9375 L 18.125 33.4375 L 19.125 32.4375 C 18.984059 32.238314 18.86781 32.025095 18.75 31.8125 z M 29.25 31.8125 C 29.13219 32.025095 29.015941 32.238314 28.875 32.4375 L 29.875 33.4375 L 30.375 32.9375 L 29.25 31.8125 z "
       transform="translate(442,144)"
       id="path3951" />
    <path
       style="opacity:0.2;fill:#ffffff;fill-opacity:1;stroke:none"
       d="m 460.125,167.5625 -0.5,0.5 1.125,1.125 c 0.11781,-0.2126 0.23406,-0.42581 0.375,-0.625 l -1,-1 z m 11.75,0 -1,1 c 0.14094,0.19919 0.25719,0.4124 0.375,0.625 l 1.125,-1.125 -0.5,-0.5 z M 466,170 c -1.10457,0 -2,0.89543 -2,2 0,0.17259 0.0214,0.34024 0.0625,0.5 0.22196,-0.8627 1.00552,-1.5 1.9375,-1.5 0.93198,0 1.71554,0.6373 1.9375,1.5 0.0411,-0.15976 0.0625,-0.32741 0.0625,-0.5 0,-1.10457 -0.89543,-2 -2,-2 z m -8,3 0,1 2.09375,0 c 0.10946,0.65761 0.34726,1.25491 0.65625,1.8125 l 0.375,-0.375 c -0.5106,-0.72161 -0.88005,-1.52916 -1.03125,-2.4375 L 458,173 z m 13.90625,0 c -0.1512,0.90834 -0.52065,1.71589 -1.03125,2.4375 l 0.375,0.375 c 0.30899,-0.55759 0.54679,-1.15489 0.65625,-1.8125 l 2.09375,0 0,-1 -2.09375,0 z m -9.34375,3.875 -1.5,1.5 -0.9375,-0.9375 -0.5,0.5 1.4375,1.4375 1.5,-1.5 c 0.72161,0.5106 1.52916,0.88005 2.4375,1.03125 l 0,-1 c -0.90834,-0.1512 -1.71589,-0.52065 -2.4375,-1.03125 z m 6.875,0 c -0.72161,0.5106 -1.52916,0.88005 -2.4375,1.03125 l 0,1 c 0.90834,-0.1512 1.71589,-0.52065 2.4375,-1.03125 l 1.5,1.5 1.4375,-1.4375 -0.5,-0.5 -0.9375,0.9375 -1.5,-1.5 z M 465,180 l 0,1 2,0 0,-1 -2,0 z"
       id="path3956"
       inkscape:connector-curvature="0" />
  </g>
  <g
     inkscape:label="mimetypes"
     transform="translate(-442,-144)"
     inkscape:groupmode="layer"
     id="layer14" />
  <g
     inkscape:label="emblems"
     transform="translate(-442,-144)"
     inkscape:groupmode="layer"
     id="layer15"
     style="display:inline" />
</svg>
