<?xml version="1.0" encoding="UTF-8" standalone="no"?>
<!-- Created with Inkscape (http://www.inkscape.org/) -->

<svg
   xmlns:dc="http://purl.org/dc/elements/1.1/"
   xmlns:cc="http://creativecommons.org/ns#"
   xmlns:rdf="http://www.w3.org/1999/02/22-rdf-syntax-ns#"
   xmlns:svg="http://www.w3.org/2000/svg"
   xmlns="http://www.w3.org/2000/svg"
   xmlns:xlink="http://www.w3.org/1999/xlink"
   xmlns:sodipodi="http://sodipodi.sourceforge.net/DTD/sodipodi-0.dtd"
   xmlns:inkscape="http://www.inkscape.org/namespaces/inkscape"
   id="svg7384"
   sodipodi:docname="folder-publicshare.svg"
   version="1.1"
   inkscape:version="0.48.4 r9939"
   height="48"
   width="48">
  <metadata
     id="metadata90">
    <rdf:RDF>
      <cc:Work
         rdf:about="">
        <dc:format>image/svg+xml</dc:format>
        <dc:type
           rdf:resource="http://purl.org/dc/dcmitype/StillImage" />
        <dc:title>Gnome Symbolic Icon Theme</dc:title>
      </cc:Work>
    </rdf:RDF>
  </metadata>
  <sodipodi:namedview
     inkscape:cy="21.008169"
     pagecolor="#ffffff"
     borderopacity="1"
     showborder="true"
     inkscape:bbox-paths="false"
     guidetolerance="10"
     inkscape:window-width="1280"
     showguides="true"
     inkscape:object-nodes="true"
     inkscape:snap-bbox="true"
     inkscape:pageshadow="2"
     inkscape:guide-bbox="true"
     inkscape:snap-nodes="true"
     bordercolor="#666666"
     objecttolerance="10"
     id="namedview88"
     showgrid="false"
     inkscape:window-maximized="1"
     inkscape:window-x="0"
     inkscape:snap-global="true"
     inkscape:window-y="24"
     gridtolerance="10"
     inkscape:window-height="1000"
     inkscape:snap-to-guides="true"
     inkscape:current-layer="layer13"
     inkscape:zoom="15.999999"
     inkscape:cx="25.380347"
     inkscape:snap-grids="true"
     inkscape:pageopacity="1">
    <inkscape:grid
       spacingx="1px"
       spacingy="1px"
       id="grid4866"
       empspacing="2"
       enabled="true"
       type="xygrid"
       snapvisiblegridlinesonly="true"
       visible="true" />
  </sodipodi:namedview>
  <title
     id="title9167">Gnome Symbolic Icon Theme</title>
  <defs
     id="defs7386">
    <linearGradient
       id="linearGradient3842">
      <stop
         id="stop3844"
         offset="0"
         style="stop-color:#6087ba;stop-opacity:1;" />
      <stop
         style="stop-color:#85a5cb;stop-opacity:1;"
         offset="0.5074119"
         id="stop3846" />
      <stop
         id="stop3848"
         offset="1"
         style="stop-color:#99b4d4;stop-opacity:1;" />
    </linearGradient>
    <linearGradient
       id="linearGradient3804">
      <stop
         style="stop-color:#becfe4;stop-opacity:1;"
         offset="0"
         id="stop3806" />
      <stop
         style="stop-color:#becfe4;stop-opacity:0;"
         offset="1"
         id="stop3810" />
    </linearGradient>
    <linearGradient
       id="linearGradient3978">
      <stop
         style="stop-color:#becfe4;stop-opacity:0;"
         offset="0"
         id="stop3980" />
      <stop
         style="stop-color:#becfe4;stop-opacity:1;"
         offset="1"
         id="stop3984" />
    </linearGradient>
    <linearGradient
       id="linearGradient3821">
      <stop
         style="stop-color:#6087ba;stop-opacity:1;"
         offset="0"
         id="stop3823" />
      <stop
         id="stop3829"
         offset="0.57654178"
         style="stop-color:#85a5cb;stop-opacity:1;" />
      <stop
         style="stop-color:#99b4d4;stop-opacity:1;"
         offset="1"
         id="stop3825" />
    </linearGradient>
    <linearGradient
       id="linearGradient3811">
      <stop
         id="stop3813"
         offset="0"
         style="stop-color:#507099;stop-opacity:1;" />
      <stop
         style="stop-color:#7999c2;stop-opacity:1;"
         offset="0.1"
         id="stop3815" />
      <stop
         id="stop3819"
         offset="1"
         style="stop-color:#becfe4;stop-opacity:1;" />
    </linearGradient>
    <linearGradient
       id="linearGradient3767">
      <stop
         style="stop-color:#aec8dc;stop-opacity:1;"
         offset="0"
         id="stop3769" />
      <stop
         id="stop3777"
         offset="0.155"
         style="stop-color:#abc6db;stop-opacity:1;" />
      <stop
         id="stop3775"
         offset="0.83099997"
         style="stop-color:#7fa9c8;stop-opacity:1;" />
      <stop
         style="stop-color:#7599c4;stop-opacity:0.99607843;"
         offset="1"
         id="stop3771" />
    </linearGradient>
    <linearGradient
       inkscape:collect="always"
       xlink:href="#linearGradient3978"
       id="linearGradient3840"
       gradientUnits="userSpaceOnUse"
       x1="24.000002"
       y1="20.169643"
       x2="24.000002"
       y2="13.00059"
       gradientTransform="translate(442,144)" />
    <radialGradient
       inkscape:collect="always"
       xlink:href="#linearGradient3767"
       id="radialGradient3782"
       cx="7.9357204"
       cy="-24.355911"
       fx="7.9357204"
       fy="-24.355911"
       r="24"
       gradientTransform="matrix(0,1.2062971,-3.2912536,0,-67.617741,3.4452919)"
       gradientUnits="userSpaceOnUse"
       spreadMethod="pad" />
    <radialGradient
       inkscape:collect="always"
       xlink:href="#linearGradient3804"
       id="radialGradient3812"
       cx="463.44406"
       cy="147.75865"
       fx="463.44406"
       fy="147.75865"
       r="24"
       gradientTransform="matrix(0,0.15293779,-1.2695525,0,653.01826,86.141386)"
       gradientUnits="userSpaceOnUse" />
    <radialGradient
       inkscape:collect="always"
       xlink:href="#linearGradient3842"
       id="radialGradient3814"
       cx="466.00003"
       cy="169.99817"
       fx="466.00003"
       fy="169.99817"
       r="22.000299"
       gradientTransform="matrix(1.7299411,0,0,0.13076234,-340.15263,135.34573)"
       gradientUnits="userSpaceOnUse" />
    <inkscape:perspective
       sodipodi:type="inkscape:persp3d"
       inkscape:vp_x="0 : 0.5 : 1"
       inkscape:vp_y="0 : 1000 : 0"
       inkscape:vp_z="1 : 0.5 : 1"
       inkscape:persp3d-origin="0.5 : 0.33333333 : 1"
       id="perspective3851" />
    <inkscape:perspective
       sodipodi:type="inkscape:persp3d"
       inkscape:vp_x="0 : 0.5 : 1"
       inkscape:vp_y="0 : 1000 : 0"
       inkscape:vp_z="1 : 0.5 : 1"
       inkscape:persp3d-origin="0.5 : 0.33333333 : 1"
       id="perspective2944" />
    <inkscape:perspective
       sodipodi:type="inkscape:persp3d"
       inkscape:vp_x="0 : 0.5 : 1"
       inkscape:vp_y="0 : 1000 : 0"
       inkscape:vp_z="1 : 0.5 : 1"
       inkscape:persp3d-origin="0.5 : 0.33333333 : 1"
       id="perspective2902" />
    <inkscape:perspective
       id="perspective10"
       inkscape:persp3d-origin="372.04724 : 350.78739 : 1"
       inkscape:vp_z="744.09448 : 526.18109 : 1"
       inkscape:vp_y="0 : 1000 : 0"
       inkscape:vp_x="0 : 526.18109 : 1"
       sodipodi:type="inkscape:persp3d" />
    <linearGradient
       id="linearGradient3756">
      <stop
         id="stop3758"
         offset="0"
         style="stop-color:#818a96;stop-opacity:1;" />
      <stop
         id="stop3760"
         offset="1"
         style="stop-color:#697380;stop-opacity:1;" />
    </linearGradient>
  </defs>
  <g
     inkscape:label="status"
     transform="translate(-442,-144)"
     inkscape:groupmode="layer"
     id="layer9"
     style="display:inline" />
  <g
     inkscape:label="devices"
     transform="translate(-442,-144)"
     inkscape:groupmode="layer"
     id="layer10" />
  <g
     inkscape:label="apps"
     transform="translate(-442,-144)"
     inkscape:groupmode="layer"
     id="layer11" />
  <g
     inkscape:label="actions"
     transform="translate(-442,-144)"
     inkscape:groupmode="layer"
     id="layer12" />
  <g
     inkscape:label="places"
     transform="translate(-442,-144)"
     inkscape:groupmode="layer"
     id="layer13">
    <path
       style="fill:url(#radialGradient3814);fill-opacity:1"
       d="m 445.93039,150 9.13947,0 c 2.8485,0 3.33061,3.92414 7.56441,4.00714 l 23.4354,0 c 1.06927,0 1.93066,0.88595 1.93066,1.98572 l 0,3.47814 c -0.0615,-0.003 -0.11925,-0.018 -0.18164,-0.018 l -43.63732,0 c -0.0624,0 -0.12015,0.0139 -0.18164,0.018 l 0,-7.48527 c 0,-1.09977 0.86139,-1.98573 1.93066,-1.98573 z"
       id="rect4155"
       inkscape:connector-curvature="0"
       sodipodi:nodetypes="sccsscsscss" />
    <path
       style="fill:#000000;fill-opacity:1;opacity:0.02"
       d="M 3.9375 6 C 2.86823 6 2 6.90023 2 8 L 2 15.46875 C 2.06149 15.46465 2.1251 15.4375 2.1875 15.4375 L 45.8125 15.4375 C 45.87489 15.4375 45.9385 15.46575 46 15.46875 L 46 12 C 46 10.90023 45.13177 10 44.0625 10 L 20.625 10 C 16.3912 9.917 15.911 6 13.0625 6 L 3.9375 6 z M 4.375 7 L 12.875 7 C 15.22599 7 16.15883 10.96875 20.78125 10.96875 L 43.15625 10.96875 C 44.17693 10.96875 45 10.94541 45 12.125 L 45 14.46875 C 44.9413 14.46675 44.87206 14.46875 44.8125 14.46875 L 3.1875 14.46875 C 3.1279 14.46875 3.0587 14.46555 3 14.46875 L 3 8.5625 C 3 7.69497 3.35432 7 4.375 7 z "
       transform="translate(442,144)"
       id="path3816" />
    <path
       style="fill:url(#radialGradient3782);fill-opacity:1"
       d="m 1.9375,13.015625 c -1.06927,0 -1.9375,0.86899 -1.9375,1.96875 0,0 0.16794443,9.356258 0.5,13.515625 0.33416878,4.185837 1.50025,11.5 1.50025,11.5 0.1309732,1.091943 0.86823,2 1.9375,2 l 40.1245,0 c 1.06927,0 1.9375,-0.90023 1.9375,-2 0,0 1.166081,-7.314162 1.50025,-11.5 0.332056,-4.159367 0.5,-13.515625 0.5,-13.515625 0.04393,-1.098882 -0.86823,-1.96875 -1.9375,-1.96875 z"
       id="path4170"
       inkscape:connector-curvature="0"
       sodipodi:nodetypes="scsssccssss"
       transform="translate(442,144)" />
    <path
       style="opacity:0.69999999999999996;fill:url(#radialGradient3812);fill-opacity:1"
       d="M 443.9375,157.01437 C 442.86823,157.01437 442,157.90024 442,159 l 1,25 c 0,1.09977 0.86823,2 1.9375,2 l 42.125,0 c 1.06927,0 1.9375,-0.90023 1.9375,-2 l 1,-25 c 0,-1.09976 -0.86823,-1.98563 -1.9375,-1.98563 z m 0.90625,1.03125 42.3125,0 c 1.02472,0 1.84375,0.77427 1.84375,1.79813 l -0.96875,23.28125 c 0,1.02387 -0.81904,1.875 -1.84375,1.875 l -40.375,0 c -1.02471,0 -1.84375,-0.85113 -1.84375,-1.875 L 443,159.84375 c 0,-1.02386 0.81903,-1.79813 1.84375,-1.79813 z"
       id="path3800"
       inkscape:connector-curvature="0"
       sodipodi:nodetypes="sccssccssssccssccs" />
    <g
       id="g3031">
      <path
         d="m 436.80001,164 c -1.76732,0 -3.2,1.30244 -3.2,2.90909 0,0.21851 0.0497,0.43162 0.1,0.63636 l -4.35,2.29546 c -0.56751,-0.46632 -1.32477,-0.75 -2.15,-0.75 -1.76731,0 -3.20001,1.30244 -3.20001,2.90909 0,1.60665 1.4327,2.90909 3.20001,2.90909 0.82523,0 1.58249,-0.28368 2.15,-0.75 l 4.35,2.29546 c -0.0503,0.20474 -0.1,0.41785 -0.1,0.63636 0,1.60665 1.43268,2.90909 3.2,2.90909 1.76731,0 3.19999,-1.30244 3.19999,-2.90909 0,-1.60665 -1.43268,-2.90909 -3.19999,-2.90909 -0.7996,0 -1.53909,0.26379 -2.1,0.70454 l -4.375,-2.29545 c 0.0426,-0.18938 0.075,-0.39008 0.075,-0.59091 0,-0.20083 -0.0323,-0.40153 -0.075,-0.59091 l 4.375,-2.29545 c 0.56091,0.44075 1.3004,0.70454 2.1,0.70454 1.76731,0 3.19999,-1.30244 3.19999,-2.90909 C 440,165.30244 438.56732,164 436.80001,164 z"
         inkscape:connector-curvature="0"
         id="path18808-8-5"
         style="opacity:0.1;color:#000000;fill:#000000;fill-opacity:1;fill-rule:nonzero;stroke:none;stroke-width:0.54325396;marker:none;visibility:visible;display:inline;overflow:visible;enable-background:accumulate" />
      <path
         inkscape:connector-curvature="0"
         id="path3806"
         d="m 436.8125,164 c -1.76732,0 -3.21875,1.2996 -3.21875,2.90625 0,0.14287 0.0337,0.26882 0.0625,0.40625 0.29839,-1.32563 1.60984,-2.3125 3.15625,-2.3125 1.58089,0 2.86557,1.03641 3.125,2.40625 0.0306,-0.16153 0.0625,-0.33053 0.0625,-0.5 C 440,165.2996 438.57981,164 436.8125,164 z m -3.1875,3.5625 -4.28125,2.28125 c -0.56751,-0.46632 -1.33102,-0.75 -2.15625,-0.75 -1.76731,0 -3.1875,1.2996 -3.1875,2.90625 0,0.16947 0.0319,0.33847 0.0625,0.5 0.25943,-1.36984 1.5441,-2.40625 3.125,-2.40625 0.82523,0 1.58874,0.28368 2.15625,0.75 l 4.34375,-2.3125 c -0.0503,-0.20474 -0.0937,-0.40649 -0.0937,-0.625 0,-0.1161 0.0167,-0.23121 0.0313,-0.34375 z m -3.28125,4.8125 -0.0313,0.0313 c 0.007,0.0292 -0.006,0.0641 0,0.0937 0.008,-0.0411 0.0244,-0.0831 0.0313,-0.125 z m 0,0.25 c 0.0203,0.12408 0.0625,0.24799 0.0625,0.375 0,0.20083 -0.0512,0.40437 -0.0937,0.59375 l 4.375,2.28125 c 0.56091,-0.44075 1.3254,-0.6875 2.125,-0.6875 1.58089,0 2.86557,1.03641 3.125,2.40625 0.0306,-0.16153 0.0625,-0.33053 0.0625,-0.5 0,-1.60665 -1.42019,-2.90625 -3.1875,-2.90625 -0.7996,0 -1.56409,0.24675 -2.125,0.6875 l -4.34375,-2.25 z m 3.28125,4.8125 c 0.009,0.072 0.0163,0.14845 0.0313,0.21875 0.0136,-0.0624 0.0163,-0.12647 0.0313,-0.1875 l -0.0625,-0.0313 z"
         style="opacity:0.1;color:#000000;fill:#000000;fill-opacity:1;fill-rule:nonzero;stroke:none;stroke-width:0.54325396;marker:none;visibility:visible;display:inline;overflow:visible;enable-background:accumulate" />
      <path
         inkscape:connector-curvature="0"
         id="path3811"
         d="m 433.65625,167.34375 c -0.015,0.0703 -0.0219,0.14674 -0.0313,0.21875 l 0.0625,-0.0313 c -0.015,-0.061 -0.0177,-0.12506 -0.0313,-0.1875 z m 6.28125,0.0625 c -0.25943,1.36984 -1.54411,2.40625 -3.125,2.40625 -0.7996,0 -1.56409,-0.24675 -2.125,-0.6875 l -4.375,2.28125 c 0.0427,0.18938 0.0937,0.39292 0.0937,0.59375 0,0.12701 -0.0422,0.25092 -0.0625,0.375 l 4.34375,-2.25 c 0.56091,0.44075 1.3254,0.6875 2.125,0.6875 1.76731,0 3.1875,-1.2996 3.1875,-2.90625 0,-0.16947 -0.0319,-0.33847 -0.0625,-0.5 z M 424.0625,172.5 C 424.0319,172.66153 424,172.83053 424,173 c 0,1.60665 1.42019,2.90625 3.1875,2.90625 0.82523,0 1.58874,-0.28368 2.15625,-0.75 l 4.28125,2.28125 c -0.0145,-0.11254 -0.0313,-0.22765 -0.0313,-0.34375 0,-0.21851 0.0435,-0.42026 0.0937,-0.625 l -4.34375,-2.3125 c -0.56751,0.46632 -1.33102,0.75 -2.15625,0.75 -1.5809,0 -2.86557,-1.03641 -3.125,-2.40625 z m 6.25,0 c -0.006,0.0297 0.007,0.0646 0,0.0937 l 0.0313,0.0313 c -0.007,-0.0419 -0.0229,-0.0839 -0.0313,-0.125 z m 9.625,5.09375 c -0.25943,1.36984 -1.54411,2.40625 -3.125,2.40625 -1.54641,0 -2.85786,-0.98688 -3.15625,-2.3125 -0.0288,0.13742 -0.0625,0.26338 -0.0625,0.40625 0,1.60665 1.45143,2.90625 3.21875,2.90625 1.76731,0 3.1875,-1.2996 3.1875,-2.90625 0,-0.16947 -0.0319,-0.33847 -0.0625,-0.5 z"
         style="opacity:0.2;color:#000000;fill:#ffffff;fill-opacity:1;fill-rule:nonzero;stroke:none;stroke-width:0.54325396;marker:none;visibility:visible;display:inline;overflow:visible;enable-background:accumulate" />
    </g>
    <path
       style="fill:#000000;fill-opacity:1;stroke:none;opacity:0.1"
       d="m 466,163 -8,8 8,8 8,-8 -8,-8 z m 0,1 7,7 -7,7 -7,-7 7,-7 z m 0,1.03125 -6,6 6,6 6,-6 -6,-6 z"
       id="rect3036"
       inkscape:connector-curvature="0" />
    <path
       id="path3820"
       d="m 500.00076,163.50781 -8,8 8,8 8,-8 -8,-8 z m 0,1 7,7 -7,7 -7,-7 7,-7 z"
       style="fill:#000000;fill-opacity:1;stroke:none"
       inkscape:connector-curvature="0" />
    <rect
       style="fill:#000000;fill-opacity:1;stroke:none"
       id="rect3822"
       width="8.485281"
       height="8.485281"
       x="470.58823"
       y="-236.50293"
       rx="0"
       ry="0"
       transform="matrix(0.70710678,0.70710678,-0.70710678,0.70710678,0,0)" />
    <path
       style="opacity:0.1;fill:#000000;fill-opacity:1;stroke:none"
       d="m 466,163 -8,8 0.5,0.5 0.5,-0.5 7,-7 7,7 0.5,0.5 0.5,-0.5 -8,-8 z m 0,2.03125 -6,6 0.5,0.5 5.5,-5.5 5.5,5.5 0.5,-0.5 -6,-6 z m -6.5,6.46875 -0.5,0.5 7,7 7,-7 -0.5,-0.5 -0.5,0.5 0,0.0313 -6,5.96875 -6,-5.96875 0,-0.0313 -0.5,-0.5 z"
       id="path3825"
       inkscape:connector-curvature="0" />
    <path
       style="opacity:0.2;fill:#ffffff;fill-opacity:1;stroke:none"
       d="m 466,164 -7,7 0.5,0.5 0.5,-0.46875 6,-6 6,6 0.5,0.46875 0.5,-0.5 -7,-7 z m -7.5,7.5 -0.5,0.5 8,8 8,-8 -0.5,-0.5 -0.5,0.5 -7,7 -7,-7 -0.5,-0.5 z m 2,0.0313 L 460,172 l 0,0.0313 6,5.96875 6,-5.96875 0,-0.0313 -0.5,-0.46875 -5.5,5.5 -5.5,-5.5 z"
       id="path3830"
       inkscape:connector-curvature="0" />
  </g>
  <g
     inkscape:label="mimetypes"
     transform="translate(-442,-144)"
     inkscape:groupmode="layer"
     id="layer14" />
  <g
     inkscape:label="emblems"
     transform="translate(-442,-144)"
     inkscape:groupmode="layer"
     id="layer15"
     style="display:inline" />
</svg>
