<?xml version="1.0" encoding="UTF-8" standalone="no"?>
<!-- Created with Inkscape (http://www.inkscape.org/) -->

<svg
   xmlns:dc="http://purl.org/dc/elements/1.1/"
   xmlns:cc="http://creativecommons.org/ns#"
   xmlns:rdf="http://www.w3.org/1999/02/22-rdf-syntax-ns#"
   xmlns:svg="http://www.w3.org/2000/svg"
   xmlns="http://www.w3.org/2000/svg"
   xmlns:xlink="http://www.w3.org/1999/xlink"
   xmlns:sodipodi="http://sodipodi.sourceforge.net/DTD/sodipodi-0.dtd"
   xmlns:inkscape="http://www.inkscape.org/namespaces/inkscape"
   id="svg7384"
   sodipodi:docname="folder-music.svg"
   version="1.1"
   inkscape:version="0.48.4 r9939"
   height="48"
   width="48">
  <metadata
     id="metadata90">
    <rdf:RDF>
      <cc:Work
         rdf:about="">
        <dc:format>image/svg+xml</dc:format>
        <dc:type
           rdf:resource="http://purl.org/dc/dcmitype/StillImage" />
        <dc:title>Gnome Symbolic Icon Theme</dc:title>
      </cc:Work>
    </rdf:RDF>
  </metadata>
  <sodipodi:namedview
     inkscape:cy="31.253029"
     pagecolor="#ffffff"
     borderopacity="1"
     showborder="true"
     inkscape:bbox-paths="false"
     guidetolerance="10"
     inkscape:window-width="1280"
     showguides="true"
     inkscape:object-nodes="true"
     inkscape:snap-bbox="true"
     inkscape:pageshadow="2"
     inkscape:guide-bbox="true"
     inkscape:snap-nodes="true"
     bordercolor="#666666"
     objecttolerance="10"
     id="namedview88"
     showgrid="false"
     inkscape:window-maximized="1"
     inkscape:window-x="0"
     inkscape:snap-global="true"
     inkscape:window-y="24"
     gridtolerance="10"
     inkscape:window-height="1000"
     inkscape:snap-to-guides="true"
     inkscape:current-layer="layer13"
     inkscape:zoom="7.4895833"
     inkscape:cx="17.604416"
     inkscape:snap-grids="true"
     inkscape:pageopacity="1">
    <inkscape:grid
       spacingx="1px"
       spacingy="1px"
       id="grid4866"
       empspacing="2"
       enabled="true"
       type="xygrid"
       snapvisiblegridlinesonly="true"
       visible="true" />
  </sodipodi:namedview>
  <title
     id="title9167">Gnome Symbolic Icon Theme</title>
  <defs
     id="defs7386">
    <linearGradient
       id="linearGradient3842">
      <stop
         id="stop3844"
         offset="0"
         style="stop-color:#6087ba;stop-opacity:1;" />
      <stop
         style="stop-color:#85a5cb;stop-opacity:1;"
         offset="0.5074119"
         id="stop3846" />
      <stop
         id="stop3848"
         offset="1"
         style="stop-color:#99b4d4;stop-opacity:1;" />
    </linearGradient>
    <linearGradient
       id="linearGradient3804">
      <stop
         style="stop-color:#becfe4;stop-opacity:1;"
         offset="0"
         id="stop3806" />
      <stop
         style="stop-color:#becfe4;stop-opacity:0;"
         offset="1"
         id="stop3810" />
    </linearGradient>
    <linearGradient
       id="linearGradient3978">
      <stop
         style="stop-color:#becfe4;stop-opacity:0;"
         offset="0"
         id="stop3980" />
      <stop
         style="stop-color:#becfe4;stop-opacity:1;"
         offset="1"
         id="stop3984" />
    </linearGradient>
    <linearGradient
       id="linearGradient3821">
      <stop
         style="stop-color:#6087ba;stop-opacity:1;"
         offset="0"
         id="stop3823" />
      <stop
         id="stop3829"
         offset="0.57654178"
         style="stop-color:#85a5cb;stop-opacity:1;" />
      <stop
         style="stop-color:#99b4d4;stop-opacity:1;"
         offset="1"
         id="stop3825" />
    </linearGradient>
    <linearGradient
       id="linearGradient3811">
      <stop
         id="stop3813"
         offset="0"
         style="stop-color:#507099;stop-opacity:1;" />
      <stop
         style="stop-color:#7999c2;stop-opacity:1;"
         offset="0.1"
         id="stop3815" />
      <stop
         id="stop3819"
         offset="1"
         style="stop-color:#becfe4;stop-opacity:1;" />
    </linearGradient>
    <linearGradient
       id="linearGradient3767">
      <stop
         style="stop-color:#aec8dc;stop-opacity:1;"
         offset="0"
         id="stop3769" />
      <stop
         id="stop3777"
         offset="0.155"
         style="stop-color:#abc6db;stop-opacity:1;" />
      <stop
         id="stop3775"
         offset="0.83099997"
         style="stop-color:#7fa9c8;stop-opacity:1;" />
      <stop
         style="stop-color:#7599c4;stop-opacity:0.99607843;"
         offset="1"
         id="stop3771" />
    </linearGradient>
    <linearGradient
       inkscape:collect="always"
       xlink:href="#linearGradient3978"
       id="linearGradient3840"
       gradientUnits="userSpaceOnUse"
       x1="24.000002"
       y1="20.169643"
       x2="24.000002"
       y2="13.00059"
       gradientTransform="translate(442,144)" />
    <radialGradient
       inkscape:collect="always"
       xlink:href="#linearGradient3767"
       id="radialGradient3782"
       cx="7.9357204"
       cy="-24.355911"
       fx="7.9357204"
       fy="-24.355911"
       r="24"
       gradientTransform="matrix(0,1.2062971,-3.2912536,0,-67.617741,3.4452919)"
       gradientUnits="userSpaceOnUse"
       spreadMethod="pad" />
    <linearGradient
       inkscape:collect="always"
       xlink:href="#linearGradient3811"
       id="linearGradient3784"
       gradientUnits="userSpaceOnUse"
       gradientTransform="translate(392,144)"
       x1="24.000002"
       y1="41.999386"
       x2="24.000002"
       y2="13.00059" />
    <radialGradient
       inkscape:collect="always"
       xlink:href="#linearGradient3804"
       id="radialGradient3812"
       cx="463.44406"
       cy="147.75865"
       fx="463.44406"
       fy="147.75865"
       r="24"
       gradientTransform="matrix(0,0.15293779,-1.2695525,0,653.01826,86.141386)"
       gradientUnits="userSpaceOnUse" />
    <radialGradient
       inkscape:collect="always"
       xlink:href="#linearGradient3842"
       id="radialGradient3814"
       cx="466.00003"
       cy="169.99817"
       fx="466.00003"
       fy="169.99817"
       r="22.000299"
       gradientTransform="matrix(1.7299411,0,0,0.13076234,-340.15263,135.34573)"
       gradientUnits="userSpaceOnUse" />
  </defs>
  <g
     inkscape:label="status"
     transform="translate(-442,-144)"
     inkscape:groupmode="layer"
     id="layer9"
     style="display:inline" />
  <g
     inkscape:label="devices"
     transform="translate(-442,-144)"
     inkscape:groupmode="layer"
     id="layer10" />
  <g
     inkscape:label="apps"
     transform="translate(-442,-144)"
     inkscape:groupmode="layer"
     id="layer11" />
  <g
     inkscape:label="actions"
     transform="translate(-442,-144)"
     inkscape:groupmode="layer"
     id="layer12" />
  <g
     inkscape:label="places"
     transform="translate(-442,-144)"
     inkscape:groupmode="layer"
     id="layer13">
    <path
       style="fill:url(#radialGradient3814);fill-opacity:1"
       d="m 445.93039,150 9.13947,0 c 2.8485,0 3.33061,3.92414 7.56441,4.00714 l 23.4354,0 c 1.06927,0 1.93066,0.88595 1.93066,1.98572 l 0,3.47814 c -0.0615,-0.003 -0.11925,-0.018 -0.18164,-0.018 l -43.63732,0 c -0.0624,0 -0.12015,0.0139 -0.18164,0.018 l 0,-7.48527 c 0,-1.09977 0.86139,-1.98573 1.93066,-1.98573 z"
       id="rect4155"
       inkscape:connector-curvature="0"
       sodipodi:nodetypes="sccsscsscss" />
    <path
       style="fill:#000000;fill-opacity:1;opacity:0.02"
       d="M 3.9375 6 C 2.86823 6 2 6.90023 2 8 L 2 15.46875 C 2.06149 15.46465 2.1251 15.4375 2.1875 15.4375 L 45.8125 15.4375 C 45.87489 15.4375 45.9385 15.46575 46 15.46875 L 46 12 C 46 10.90023 45.13177 10 44.0625 10 L 20.625 10 C 16.3912 9.917 15.911 6 13.0625 6 L 3.9375 6 z M 4.375 7 L 12.875 7 C 15.22599 7 16.15883 10.96875 20.78125 10.96875 L 43.15625 10.96875 C 44.17693 10.96875 45 10.94541 45 12.125 L 45 14.46875 C 44.9413 14.46675 44.87206 14.46875 44.8125 14.46875 L 3.1875 14.46875 C 3.1279 14.46875 3.0587 14.46555 3 14.46875 L 3 8.5625 C 3 7.69497 3.35432 7 4.375 7 z "
       transform="translate(442,144)"
       id="path3816" />
    <path
       style="fill:url(#radialGradient3782);fill-opacity:1"
       d="m 1.9375,13.015625 c -1.06927,0 -1.9375,0.86899 -1.9375,1.96875 0,0 0.16794443,9.356258 0.5,13.515625 0.33416878,4.185837 1.50025,11.5 1.50025,11.5 0.1309732,1.091943 0.86823,2 1.9375,2 l 40.1245,0 c 1.06927,0 1.9375,-0.90023 1.9375,-2 0,0 1.166081,-7.314162 1.50025,-11.5 0.332056,-4.159367 0.5,-13.515625 0.5,-13.515625 0.04393,-1.098882 -0.86823,-1.96875 -1.9375,-1.96875 z"
       id="path4170"
       inkscape:connector-curvature="0"
       sodipodi:nodetypes="scsssccssss"
       transform="translate(442,144)" />
    <path
       style="opacity:0.69999999999999996;fill:url(#radialGradient3812);fill-opacity:1"
       d="M 443.9375,157.01437 C 442.86823,157.01437 442,157.90024 442,159 l 1,25 c 0,1.09977 0.86823,2 1.9375,2 l 42.125,0 c 1.06927,0 1.9375,-0.90023 1.9375,-2 l 1,-25 c 0,-1.09976 -0.86823,-1.98563 -1.9375,-1.98563 z m 0.90625,1.03125 42.3125,0 c 1.02472,0 1.84375,0.77427 1.84375,1.79813 l -0.96875,23.28125 c 0,1.02387 -0.81904,1.875 -1.84375,1.875 l -40.375,0 c -1.02471,0 -1.84375,-0.85113 -1.84375,-1.875 L 443,159.84375 c 0,-1.02386 0.81903,-1.79813 1.84375,-1.79813 z"
       id="path3800"
       inkscape:connector-curvature="0"
       sodipodi:nodetypes="sccssccssssccssccs" />
    <path
       id="path3027"
       d="m 465.89551,164 h 0.2105 c 0,0 7.89475,0 7.89475,8.64174 0,3.88881 -0.84209,5.18507 -1.26315,5.61714 0,0 -1.26317,0.86416 -0.84211,-0.32406 0,-1.00007 0.42108,-3.13265 0.42108,-3.13265 0,0 0.42106,0 0.42106,-2.16043 0,-2.59251 -1.68423,-7.1294 -6.31579,-7.1294 h -0.84209 c -4.63159,0 -6.31578,4.53692 -6.31578,7.1294 0,2.16043 0.42106,2.16043 0.42106,2.16043 0,0 0.42107,2.13258 0.42107,3.13265 0.42106,1.18825 -0.8421,0.32406 -0.8421,0.32406 -0.42116,-0.4321 -1.26325,-1.72836 -1.26325,-5.61714 C 458.00076,164 465.89551,164 465.89551,164 z m -4.71444,8.71349 c 0.69078,-0.0995 1.32957,0.39409 1.4266,1.103 l 0.64475,4.70653 c 0.097,0.7089 -0.38425,1.36464 -1.07503,1.46421 -0.69101,0.0995 -1.5401,-0.39409 -1.63734,-1.10301 l -0.64454,-4.70698 c -0.0971,-0.70889 0.59476,-1.36422 1.28556,-1.46375 z m 9.6396,0 c 0.69074,0.0995 1.38237,0.75486 1.28534,1.46379 l -0.64472,4.70694 c -0.097,0.70889 -0.94612,1.20259 -1.63737,1.10301 -0.69076,-0.0995 -1.17188,-0.75531 -1.07485,-1.46421 l 0.64475,-4.70653 c 0.0971,-0.70891 0.73607,-1.20261 1.42685,-1.103 z"
       inkscape:connector-curvature="0"
       style="opacity:0.1" />
    <path
       style="opacity:0.1"
       d="M 23.90625 20 C 23.90625 20 16 20.01451 16 28.65625 C 16 28.922571 16.023757 29.132442 16.03125 29.375 C 16.208896 21.028352 23.90625 21 23.90625 21 L 24.09375 21 C 24.09375 21 31.791104 21.028352 31.96875 29.375 C 31.976243 29.132441 32 28.922573 32 28.65625 C 32 20.01451 24.09375 20 24.09375 20 L 23.90625 20 z M 19.1875 28.71875 C 18.4967 28.81828 17.80915 29.47861 17.90625 30.1875 L 17.96875 30.65625 C 18.154753 30.16821 18.6694 29.793398 19.1875 29.71875 C 19.87828 29.61925 20.49672 30.10359 20.59375 30.8125 L 21.1875 35.09375 C 21.245594 34.911618 21.277714 34.733793 21.25 34.53125 L 20.59375 29.8125 C 20.49672 29.10359 19.87828 28.61925 19.1875 28.71875 z M 28.5625 28.71875 C 27.976101 28.756208 27.491213 29.192204 27.40625 29.8125 L 26.75 34.53125 C 26.722277 34.733793 26.754426 34.911612 26.8125 35.09375 L 27.40625 30.8125 C 27.50335 30.10359 28.12172 29.61914 28.8125 29.71875 C 29.330555 29.793375 29.845285 30.168186 30.03125 30.65625 L 30.09375 30.1875 C 30.19078 29.47857 29.50324 28.81825 28.8125 28.71875 C 28.726152 28.706299 28.646271 28.713399 28.5625 28.71875 z M 17.28125 29.1875 C 17.270834 29.340899 17.25 29.513552 17.25 29.65625 C 17.25 31.81668 17.6875 31.8125 17.6875 31.8125 C 17.6875 31.8125 17.98806 33.454269 18.0625 34.53125 C 18.190771 34.485662 18.235858 34.338534 18.09375 33.9375 C 18.09375 32.93743 17.6875 30.8125 17.6875 30.8125 C 17.6875 30.8125 17.352656 30.730533 17.28125 29.1875 z M 30.71875 29.1875 C 30.647344 30.730533 30.3125 30.8125 30.3125 30.8125 C 30.3125 30.8125 29.90625 32.93743 29.90625 33.9375 C 29.764142 34.338524 29.809227 34.485662 29.9375 34.53125 C 30.011942 33.454269 30.3125 31.8125 30.3125 31.8125 C 30.3125 31.8125 30.75 31.81668 30.75 29.65625 C 30.75 29.513551 30.729166 29.3409 30.71875 29.1875 z "
       transform="translate(442,144)"
       id="path3804" />
    <path
       style="opacity:0.20000000000000001;fill:#ffffff;fill-opacity:1"
       d="m 465.59375,165.5 c -4.63159,0 -6.34375,4.56377 -6.34375,7.15625 0,0.22927 0.0228,0.34806 0.0313,0.53125 0.17882,-2.6335 1.93585,-6.6875 6.3125,-6.6875 l 0.8125,0 c 4.37662,0 6.13368,4.05398 6.3125,6.6875 0.008,-0.18319 0.0313,-0.30198 0.0313,-0.53125 0,-2.59251 -1.71219,-7.15625 -6.34375,-7.15625 l -0.8125,0 z m -7.5625,7.875 c -0.002,0.0972 -0.0313,0.18174 -0.0313,0.28125 0,3.88878 0.82884,5.16165 1.25,5.59375 0,0 1.26481,0.87575 0.84375,-0.3125 0,-0.11214 -0.0218,-0.27024 -0.0313,-0.40625 -0.25179,0.0895 -0.8125,-0.28125 -0.8125,-0.28125 -0.39232,-0.40251 -1.11683,-1.57577 -1.21875,-4.875 z m 15.9375,0 c -0.10192,3.29926 -0.82653,4.47252 -1.21875,4.875 0,0 -0.5607,0.37074 -0.8125,0.28125 -0.009,0.13601 -0.0313,0.29411 -0.0313,0.40625 -0.42106,1.18822 0.84375,0.3125 0.84375,0.3125 0.42106,-0.43207 1.25,-1.70494 1.25,-5.59375 0,-0.0995 -0.0292,-0.18402 -0.0313,-0.28125 z m -14,1.28125 c -0.062,0.16268 -0.0868,0.35403 -0.0625,0.53125 l 0.625,4.6875 c 0.0972,0.70892 0.96524,1.2245 1.65625,1.125 0.69078,-0.0996 1.1595,-0.75985 1.0625,-1.46875 l -0.0625,-0.4375 c -0.14524,0.45533 -0.50659,0.83513 -1,0.90625 -0.69101,0.0995 -1.55901,-0.41608 -1.65625,-1.125 l -0.5625,-4.21875 z m 12.0625,0 -0.5625,4.21875 c -0.097,0.70889 -0.965,1.22458 -1.65625,1.125 -0.4934,-0.0711 -0.85481,-0.45091 -1,-0.90625 l -0.0625,0.4375 c -0.097,0.7089 0.37174,1.36925 1.0625,1.46875 0.69125,0.0996 1.55925,-0.41611 1.65625,-1.125 l 0.625,-4.6875 c 0.0243,-0.17723 -5.1e-4,-0.36856 -0.0625,-0.53125 z"
       id="path3809"
       inkscape:connector-curvature="0" />
  </g>
  <g
     inkscape:label="mimetypes"
     transform="translate(-442,-144)"
     inkscape:groupmode="layer"
     id="layer14" />
  <g
     inkscape:label="emblems"
     transform="translate(-442,-144)"
     inkscape:groupmode="layer"
     id="layer15"
     style="display:inline" />
</svg>
