<?xml version="1.0" encoding="UTF-8" standalone="no"?>
<!-- Created with Inkscape (http://www.inkscape.org/) -->

<svg
   xmlns:dc="http://purl.org/dc/elements/1.1/"
   xmlns:cc="http://creativecommons.org/ns#"
   xmlns:rdf="http://www.w3.org/1999/02/22-rdf-syntax-ns#"
   xmlns:svg="http://www.w3.org/2000/svg"
   xmlns="http://www.w3.org/2000/svg"
   xmlns:xlink="http://www.w3.org/1999/xlink"
   xmlns:sodipodi="http://sodipodi.sourceforge.net/DTD/sodipodi-0.dtd"
   xmlns:inkscape="http://www.inkscape.org/namespaces/inkscape"
   id="svg7384"
   sodipodi:docname="folder (копия).svg"
   version="1.1"
   inkscape:version="0.48.4 r9939"
   height="48"
   width="48">
  <metadata
     id="metadata90">
    <rdf:RDF>
      <cc:Work
         rdf:about="">
        <dc:format>image/svg+xml</dc:format>
        <dc:type
           rdf:resource="http://purl.org/dc/dcmitype/StillImage" />
        <dc:title>Gnome Symbolic Icon Theme</dc:title>
      </cc:Work>
    </rdf:RDF>
  </metadata>
  <sodipodi:namedview
     inkscape:cy="37.810924"
     pagecolor="#ffffff"
     borderopacity="1"
     showborder="true"
     inkscape:bbox-paths="false"
     guidetolerance="10"
     inkscape:window-width="1280"
     showguides="true"
     inkscape:object-nodes="true"
     inkscape:snap-bbox="true"
     inkscape:pageshadow="2"
     inkscape:guide-bbox="true"
     inkscape:snap-nodes="true"
     bordercolor="#666666"
     objecttolerance="10"
     id="namedview88"
     showgrid="false"
     inkscape:window-maximized="1"
     inkscape:window-x="0"
     inkscape:snap-global="true"
     inkscape:window-y="24"
     gridtolerance="10"
     inkscape:window-height="1000"
     inkscape:snap-to-guides="true"
     inkscape:current-layer="layer13"
     inkscape:zoom="7.9999996"
     inkscape:cx="28.101485"
     inkscape:snap-grids="true"
     inkscape:pageopacity="1">
    <inkscape:grid
       spacingx="1px"
       spacingy="1px"
       id="grid4866"
       empspacing="2"
       enabled="true"
       type="xygrid"
       snapvisiblegridlinesonly="true"
       visible="true" />
  </sodipodi:namedview>
  <title
     id="title9167">Gnome Symbolic Icon Theme</title>
  <defs
     id="defs7386">
    <linearGradient
       id="linearGradient3793">
      <stop
         style="stop-color:#6087ba;stop-opacity:1;"
         offset="0"
         id="stop3795" />
      <stop
         id="stop3797"
         offset="0.6000002"
         style="stop-color:#85a5cb;stop-opacity:0;" />
      <stop
         style="stop-color:#99b4d4;stop-opacity:0;"
         offset="1"
         id="stop3799" />
    </linearGradient>
    <linearGradient
       id="linearGradient3842">
      <stop
         style="stop-color:#99b4d4;stop-opacity:1;"
         offset="0"
         id="stop3846" />
      <stop
         id="stop3848"
         offset="1"
         style="stop-color:#85a5cb;stop-opacity:1;" />
    </linearGradient>
    <linearGradient
       id="linearGradient3804">
      <stop
         style="stop-color:#becfe4;stop-opacity:1;"
         offset="0"
         id="stop3806" />
      <stop
         style="stop-color:#becfe4;stop-opacity:0;"
         offset="1"
         id="stop3810" />
    </linearGradient>
    <linearGradient
       id="linearGradient3978">
      <stop
         style="stop-color:#becfe4;stop-opacity:0;"
         offset="0"
         id="stop3980" />
      <stop
         style="stop-color:#becfe4;stop-opacity:1;"
         offset="1"
         id="stop3984" />
    </linearGradient>
    <linearGradient
       id="linearGradient3821">
      <stop
         style="stop-color:#6087ba;stop-opacity:1;"
         offset="0"
         id="stop3823" />
      <stop
         id="stop3829"
         offset="0.57654178"
         style="stop-color:#85a5cb;stop-opacity:1;" />
      <stop
         style="stop-color:#99b4d4;stop-opacity:1;"
         offset="1"
         id="stop3825" />
    </linearGradient>
    <linearGradient
       id="linearGradient3811">
      <stop
         id="stop3813"
         offset="0"
         style="stop-color:#507099;stop-opacity:1;" />
      <stop
         style="stop-color:#7999c2;stop-opacity:1;"
         offset="0.1"
         id="stop3815" />
      <stop
         id="stop3819"
         offset="1"
         style="stop-color:#becfe4;stop-opacity:1;" />
    </linearGradient>
    <linearGradient
       id="linearGradient3767">
      <stop
         style="stop-color:#aec8dc;stop-opacity:1;"
         offset="0"
         id="stop3769" />
      <stop
         id="stop3777"
         offset="0.155"
         style="stop-color:#abc6db;stop-opacity:1;" />
      <stop
         id="stop3775"
         offset="0.83099997"
         style="stop-color:#7fa9c8;stop-opacity:1;" />
      <stop
         style="stop-color:#7599c4;stop-opacity:0.99607843;"
         offset="1"
         id="stop3771" />
    </linearGradient>
    <linearGradient
       inkscape:collect="always"
       xlink:href="#linearGradient3978"
       id="linearGradient3840"
       gradientUnits="userSpaceOnUse"
       x1="24.000002"
       y1="20.169643"
       x2="24.000002"
       y2="13.00059"
       gradientTransform="translate(442,144)" />
    <radialGradient
       inkscape:collect="always"
       xlink:href="#linearGradient3767"
       id="radialGradient3782"
       cx="7.9357204"
       cy="-24.355911"
       fx="7.9357204"
       fy="-24.355911"
       r="24"
       gradientTransform="matrix(0,1.2062971,-3.2912536,0,-67.617741,3.4452919)"
       gradientUnits="userSpaceOnUse"
       spreadMethod="pad" />
    <linearGradient
       inkscape:collect="always"
       xlink:href="#linearGradient3811"
       id="linearGradient3784"
       gradientUnits="userSpaceOnUse"
       gradientTransform="translate(392,144)"
       x1="24.000002"
       y1="41.999386"
       x2="24.000002"
       y2="13.00059" />
    <radialGradient
       inkscape:collect="always"
       xlink:href="#linearGradient3804"
       id="radialGradient3812"
       cx="510.28903"
       cy="147.75865"
       fx="510.28903"
       fy="147.75865"
       r="24"
       gradientTransform="matrix(0,0.15293779,-1.2695525,0,653.01826,86.141386)"
       gradientUnits="userSpaceOnUse" />
    <radialGradient
       inkscape:collect="always"
       xlink:href="#linearGradient3793"
       id="radialGradient3801"
       gradientUnits="userSpaceOnUse"
       gradientTransform="matrix(2.99971,1.4138572e-8,0,0.3360832,-931.86497,90.162957)"
       cx="466.00003"
       cy="220.0593"
       fx="466.00003"
       fy="220.0593"
       r="22.000299" />
    <radialGradient
       inkscape:collect="always"
       xlink:href="#linearGradient3842"
       id="radialGradient3805"
       cx="466.00003"
       cy="146.8008"
       fx="466.00003"
       fy="146.8008"
       r="22.000299"
       gradientTransform="matrix(-4.8773152e-8,0.64393643,-2.7569711,-2.0881901e-7,855.33233,-150.02805)"
       gradientUnits="userSpaceOnUse" />
  </defs>
  <g
     inkscape:label="status"
     transform="translate(-442,-144)"
     inkscape:groupmode="layer"
     id="layer9"
     style="display:inline" />
  <g
     inkscape:label="devices"
     transform="translate(-442,-144)"
     inkscape:groupmode="layer"
     id="layer10" />
  <g
     inkscape:label="apps"
     transform="translate(-442,-144)"
     inkscape:groupmode="layer"
     id="layer11" />
  <g
     inkscape:label="actions"
     transform="translate(-442,-144)"
     inkscape:groupmode="layer"
     id="layer12" />
  <g
     inkscape:label="places"
     transform="translate(-442,-144)"
     inkscape:groupmode="layer"
     id="layer13">
    <path
       style="fill:url(#radialGradient3805);fill-opacity:1"
       d="m 445.93039,150 9.13947,0 c 2.8485,0 3.33061,3.92414 7.56441,4.00714 l 23.4354,0 c 1.06927,0 1.93066,0.88595 1.93066,1.98572 l 0,15.67814 c -0.0615,-0.003 -0.11925,-0.018 -0.18164,-0.018 l -43.63732,0 c -0.0624,0 -0.12015,0.0139 -0.18164,0.018 l 0,-19.68527 c 0,-1.09977 0.86139,-1.98573 1.93066,-1.98573 z"
       id="rect4155"
       inkscape:connector-curvature="0"
       sodipodi:nodetypes="sccsscsscss" />
    <path
       style="opacity:0.02000002;fill:#000000;fill-opacity:1"
       d="M 3.9375,6 C 2.86823,6 2,6.90023 2,8 l 0,19.669 c 0.06149,-0.0041 0.1251,-0.03125 0.1875,-0.03125 l 43.625,0 c 0.06239,0 0.126,0.02825 0.1875,0.03125 L 46,12 c 0,-1.09977 -0.86823,-2 -1.9375,-2 L 20.625,10 C 16.3912,9.917 15.911,6 13.0625,6 z m 0.4375,1 8.5,0 c 2.35099,0 3.28383,3.96875 7.90625,3.96875 l 22.375,0 C 44.17693,10.96875 45,10.94541 45,12.125 l 0,14.544 c -0.0587,-0.002 -0.12794,0 -0.1875,0 l -41.625,0 c -0.0596,0 -0.1288,-0.0032 -0.1875,0 L 3,8.5625 C 3,7.69497 3.35432,7 4.375,7 z"
       transform="translate(442,144)"
       id="path3816"
       inkscape:connector-curvature="0"
       sodipodi:nodetypes="sscsscsscssssssscsscss" />
    <path
       sodipodi:nodetypes="sccsscsscss"
       inkscape:connector-curvature="0"
       id="path3023"
       d="m 445.93039,150 9.13947,0 c 2.8485,0 3.33061,3.92414 7.56441,4.00714 l 23.4354,0 c 1.06927,0 1.93066,0.88595 1.93066,1.98572 l 0,15.67814 c -0.0615,-0.003 -0.11925,-0.018 -0.18164,-0.018 l -43.63732,0 c -0.0624,0 -0.12015,0.0139 -0.18164,0.018 l 0,-19.68527 c 0,-1.09977 0.86139,-1.98573 1.93066,-1.98573 z"
       style="fill:url(#radialGradient3801);fill-opacity:1" />
    <path
       style="fill:url(#radialGradient3782);fill-opacity:1"
       d="M 1.9375,20.015812 C 0.86823,20.015812 0,20.884802 0,21.984562 L 2.00025,40 c 0.1309732,1.091943 0.86823,2 1.9375,2 l 40.1245,0 c 1.06927,0 1.9375,-0.90023 1.9375,-2 L 48,21.984562 c 0.04393,-1.098882 -0.86823,-1.96875 -1.9375,-1.96875 z"
       id="path4170"
       inkscape:connector-curvature="0"
       sodipodi:nodetypes="sccscccss"
       transform="translate(442,144)" />
    <path
       sodipodi:nodetypes="sccssccssssccssccs"
       inkscape:connector-curvature="0"
       id="path3974"
       d="M 393.9375,157.01437 C 392.86823,157.01437 392,157.90024 392,159 l 1,25 c 0,1.09977 0.86823,2 1.9375,2 l 42.125,0 c 1.06927,0 1.9375,-0.90023 1.9375,-2 l 1,-25 c 0,-1.09976 -0.86823,-1.98563 -1.9375,-1.98563 z m 0.90625,1.03125 42.3125,0 c 1.02472,0 1.84375,0.77427 1.84375,1.79813 l -0.96875,23.28125 c 0,1.02387 -0.81904,1.875 -1.84375,1.875 l -40.375,0 c -1.02471,0 -1.84375,-0.85113 -1.84375,-1.875 L 393,159.84375 c 0,-1.02386 0.81903,-1.79813 1.84375,-1.79813 z"
       style="opacity:0.7;fill:url(#linearGradient3784);fill-opacity:1" />
    <path
       style="opacity:0.69999999999999996;fill:url(#radialGradient3812);fill-opacity:1"
       d="m 443.9375,164.01431 c -1.06927,0 -1.9375,0.88587 -1.9375,1.98563 L 443,184 c 0,1.09977 0.86823,2 1.9375,2 l 42.125,0 c 1.06927,0 1.9375,-0.90023 1.9375,-2 l 1,-18.00006 c 0,-1.09976 -0.86823,-1.98563 -1.9375,-1.98563 z m 0.90625,1.03125 42.3125,0 c 1.02472,0 1.84375,0.77427 1.84375,1.79813 l -0.96875,16.28131 c 0,1.02387 -0.81904,1.875 -1.84375,1.875 l -40.375,0 c -1.02471,0 -1.84375,-0.85113 -1.84375,-1.875 L 443,166.84369 c 0,-1.02386 0.81903,-1.79813 1.84375,-1.79813 z"
       id="path3800"
       inkscape:connector-curvature="0"
       sodipodi:nodetypes="sccssccssssccssccs" />
  </g>
  <g
     inkscape:label="mimetypes"
     transform="translate(-442,-144)"
     inkscape:groupmode="layer"
     id="layer14" />
  <g
     inkscape:label="emblems"
     transform="translate(-442,-144)"
     inkscape:groupmode="layer"
     id="layer15"
     style="display:inline" />
</svg>
