<?xml version="1.0" encoding="UTF-8" standalone="no"?>
<!-- Created with Inkscape (http://www.inkscape.org/) -->

<svg
   xmlns:dc="http://purl.org/dc/elements/1.1/"
   xmlns:cc="http://creativecommons.org/ns#"
   xmlns:rdf="http://www.w3.org/1999/02/22-rdf-syntax-ns#"
   xmlns:svg="http://www.w3.org/2000/svg"
   xmlns="http://www.w3.org/2000/svg"
   xmlns:xlink="http://www.w3.org/1999/xlink"
   xmlns:sodipodi="http://sodipodi.sourceforge.net/DTD/sodipodi-0.dtd"
   xmlns:inkscape="http://www.inkscape.org/namespaces/inkscape"
   id="svg7384"
   sodipodi:docname="folder-templates.svg"
   version="1.1"
   inkscape:version="0.48.4 r9939"
   height="48"
   width="48">
  <metadata
     id="metadata90">
    <rdf:RDF>
      <cc:Work
         rdf:about="">
        <dc:format>image/svg+xml</dc:format>
        <dc:type
           rdf:resource="http://purl.org/dc/dcmitype/StillImage" />
        <dc:title>Gnome Symbolic Icon Theme</dc:title>
      </cc:Work>
    </rdf:RDF>
  </metadata>
  <sodipodi:namedview
     inkscape:cy="22.325631"
     pagecolor="#ffffff"
     borderopacity="1"
     showborder="true"
     inkscape:bbox-paths="false"
     guidetolerance="10"
     inkscape:window-width="1280"
     showguides="true"
     inkscape:object-nodes="true"
     inkscape:snap-bbox="true"
     inkscape:pageshadow="2"
     inkscape:guide-bbox="true"
     inkscape:snap-nodes="true"
     bordercolor="#666666"
     objecttolerance="10"
     id="namedview88"
     showgrid="false"
     inkscape:window-maximized="1"
     inkscape:window-x="0"
     inkscape:snap-global="true"
     inkscape:window-y="24"
     gridtolerance="10"
     inkscape:window-height="1000"
     inkscape:snap-to-guides="true"
     inkscape:current-layer="layer13"
     inkscape:zoom="15.999999"
     inkscape:cx="33.377601"
     inkscape:snap-grids="true"
     inkscape:pageopacity="1">
    <inkscape:grid
       spacingx="1px"
       spacingy="1px"
       id="grid4866"
       empspacing="2"
       enabled="true"
       type="xygrid"
       snapvisiblegridlinesonly="true"
       visible="true" />
  </sodipodi:namedview>
  <title
     id="title9167">Gnome Symbolic Icon Theme</title>
  <defs
     id="defs7386">
    <linearGradient
       id="linearGradient3842">
      <stop
         id="stop3844"
         offset="0"
         style="stop-color:#6087ba;stop-opacity:1;" />
      <stop
         style="stop-color:#85a5cb;stop-opacity:1;"
         offset="0.5074119"
         id="stop3846" />
      <stop
         id="stop3848"
         offset="1"
         style="stop-color:#99b4d4;stop-opacity:1;" />
    </linearGradient>
    <linearGradient
       id="linearGradient3804">
      <stop
         style="stop-color:#becfe4;stop-opacity:1;"
         offset="0"
         id="stop3806" />
      <stop
         style="stop-color:#becfe4;stop-opacity:0;"
         offset="1"
         id="stop3810" />
    </linearGradient>
    <linearGradient
       id="linearGradient3978">
      <stop
         style="stop-color:#becfe4;stop-opacity:0;"
         offset="0"
         id="stop3980" />
      <stop
         style="stop-color:#becfe4;stop-opacity:1;"
         offset="1"
         id="stop3984" />
    </linearGradient>
    <linearGradient
       id="linearGradient3821">
      <stop
         style="stop-color:#6087ba;stop-opacity:1;"
         offset="0"
         id="stop3823" />
      <stop
         id="stop3829"
         offset="0.57654178"
         style="stop-color:#85a5cb;stop-opacity:1;" />
      <stop
         style="stop-color:#99b4d4;stop-opacity:1;"
         offset="1"
         id="stop3825" />
    </linearGradient>
    <linearGradient
       id="linearGradient3811">
      <stop
         id="stop3813"
         offset="0"
         style="stop-color:#507099;stop-opacity:1;" />
      <stop
         style="stop-color:#7999c2;stop-opacity:1;"
         offset="0.1"
         id="stop3815" />
      <stop
         id="stop3819"
         offset="1"
         style="stop-color:#becfe4;stop-opacity:1;" />
    </linearGradient>
    <linearGradient
       id="linearGradient3767">
      <stop
         style="stop-color:#aec8dc;stop-opacity:1;"
         offset="0"
         id="stop3769" />
      <stop
         id="stop3777"
         offset="0.155"
         style="stop-color:#abc6db;stop-opacity:1;" />
      <stop
         id="stop3775"
         offset="0.83099997"
         style="stop-color:#7fa9c8;stop-opacity:1;" />
      <stop
         style="stop-color:#7599c4;stop-opacity:0.99607843;"
         offset="1"
         id="stop3771" />
    </linearGradient>
    <linearGradient
       inkscape:collect="always"
       xlink:href="#linearGradient3978"
       id="linearGradient3840"
       gradientUnits="userSpaceOnUse"
       x1="24.000002"
       y1="20.169643"
       x2="24.000002"
       y2="13.00059"
       gradientTransform="translate(442,144)" />
    <radialGradient
       inkscape:collect="always"
       xlink:href="#linearGradient3767"
       id="radialGradient3782"
       cx="7.9357204"
       cy="-24.355911"
       fx="7.9357204"
       fy="-24.355911"
       r="24"
       gradientTransform="matrix(0,1.2062971,-3.2912536,0,-67.617741,3.4452919)"
       gradientUnits="userSpaceOnUse"
       spreadMethod="pad" />
    <radialGradient
       inkscape:collect="always"
       xlink:href="#linearGradient3804"
       id="radialGradient3812"
       cx="463.44406"
       cy="147.75865"
       fx="463.44406"
       fy="147.75865"
       r="24"
       gradientTransform="matrix(0,0.15293779,-1.2695525,0,653.01826,86.141386)"
       gradientUnits="userSpaceOnUse" />
    <radialGradient
       inkscape:collect="always"
       xlink:href="#linearGradient3842"
       id="radialGradient3814"
       cx="466.00003"
       cy="169.99817"
       fx="466.00003"
       fy="169.99817"
       r="22.000299"
       gradientTransform="matrix(1.7299411,0,0,0.13076234,-340.15263,135.34573)"
       gradientUnits="userSpaceOnUse" />
    <inkscape:perspective
       sodipodi:type="inkscape:persp3d"
       inkscape:vp_x="0 : 0.5 : 1"
       inkscape:vp_y="0 : 1000 : 0"
       inkscape:vp_z="1 : 0.5 : 1"
       inkscape:persp3d-origin="0.5 : 0.33333333 : 1"
       id="perspective3851" />
    <inkscape:perspective
       sodipodi:type="inkscape:persp3d"
       inkscape:vp_x="0 : 0.5 : 1"
       inkscape:vp_y="0 : 1000 : 0"
       inkscape:vp_z="1 : 0.5 : 1"
       inkscape:persp3d-origin="0.5 : 0.33333333 : 1"
       id="perspective2944" />
    <inkscape:perspective
       sodipodi:type="inkscape:persp3d"
       inkscape:vp_x="0 : 0.5 : 1"
       inkscape:vp_y="0 : 1000 : 0"
       inkscape:vp_z="1 : 0.5 : 1"
       inkscape:persp3d-origin="0.5 : 0.33333333 : 1"
       id="perspective2902" />
    <inkscape:perspective
       id="perspective10"
       inkscape:persp3d-origin="372.04724 : 350.78739 : 1"
       inkscape:vp_z="744.09448 : 526.18109 : 1"
       inkscape:vp_y="0 : 1000 : 0"
       inkscape:vp_x="0 : 526.18109 : 1"
       sodipodi:type="inkscape:persp3d" />
    <linearGradient
       id="linearGradient3756">
      <stop
         id="stop3758"
         offset="0"
         style="stop-color:#818a96;stop-opacity:1;" />
      <stop
         id="stop3760"
         offset="1"
         style="stop-color:#697380;stop-opacity:1;" />
    </linearGradient>
  </defs>
  <g
     inkscape:label="status"
     transform="translate(-442,-144)"
     inkscape:groupmode="layer"
     id="layer9"
     style="display:inline" />
  <g
     inkscape:label="devices"
     transform="translate(-442,-144)"
     inkscape:groupmode="layer"
     id="layer10" />
  <g
     inkscape:label="apps"
     transform="translate(-442,-144)"
     inkscape:groupmode="layer"
     id="layer11" />
  <g
     inkscape:label="actions"
     transform="translate(-442,-144)"
     inkscape:groupmode="layer"
     id="layer12" />
  <g
     inkscape:label="places"
     transform="translate(-442,-144)"
     inkscape:groupmode="layer"
     id="layer13">
    <path
       style="fill:url(#radialGradient3814);fill-opacity:1"
       d="m 445.93039,150 9.13947,0 c 2.8485,0 3.33061,3.92414 7.56441,4.00714 l 23.4354,0 c 1.06927,0 1.93066,0.88595 1.93066,1.98572 l 0,3.47814 c -0.0615,-0.003 -0.11925,-0.018 -0.18164,-0.018 l -43.63732,0 c -0.0624,0 -0.12015,0.0139 -0.18164,0.018 l 0,-7.48527 c 0,-1.09977 0.86139,-1.98573 1.93066,-1.98573 z"
       id="rect4155"
       inkscape:connector-curvature="0"
       sodipodi:nodetypes="sccsscsscss" />
    <path
       style="fill:#000000;fill-opacity:1;opacity:0.02"
       d="M 3.9375 6 C 2.86823 6 2 6.90023 2 8 L 2 15.46875 C 2.06149 15.46465 2.1251 15.4375 2.1875 15.4375 L 45.8125 15.4375 C 45.87489 15.4375 45.9385 15.46575 46 15.46875 L 46 12 C 46 10.90023 45.13177 10 44.0625 10 L 20.625 10 C 16.3912 9.917 15.911 6 13.0625 6 L 3.9375 6 z M 4.375 7 L 12.875 7 C 15.22599 7 16.15883 10.96875 20.78125 10.96875 L 43.15625 10.96875 C 44.17693 10.96875 45 10.94541 45 12.125 L 45 14.46875 C 44.9413 14.46675 44.87206 14.46875 44.8125 14.46875 L 3.1875 14.46875 C 3.1279 14.46875 3.0587 14.46555 3 14.46875 L 3 8.5625 C 3 7.69497 3.35432 7 4.375 7 z "
       transform="translate(442,144)"
       id="path3816" />
    <path
       style="fill:url(#radialGradient3782);fill-opacity:1"
       d="m 1.9375,13.015625 c -1.06927,0 -1.9375,0.86899 -1.9375,1.96875 0,0 0.16794443,9.356258 0.5,13.515625 0.33416878,4.185837 1.50025,11.5 1.50025,11.5 0.1309732,1.091943 0.86823,2 1.9375,2 l 40.1245,0 c 1.06927,0 1.9375,-0.90023 1.9375,-2 0,0 1.166081,-7.314162 1.50025,-11.5 0.332056,-4.159367 0.5,-13.515625 0.5,-13.515625 0.04393,-1.098882 -0.86823,-1.96875 -1.9375,-1.96875 z"
       id="path4170"
       inkscape:connector-curvature="0"
       sodipodi:nodetypes="scsssccssss"
       transform="translate(442,144)" />
    <path
       style="opacity:0.69999999999999996;fill:url(#radialGradient3812);fill-opacity:1"
       d="M 443.9375,157.01437 C 442.86823,157.01437 442,157.90024 442,159 l 1,25 c 0,1.09977 0.86823,2 1.9375,2 l 42.125,0 c 1.06927,0 1.9375,-0.90023 1.9375,-2 l 1,-25 c 0,-1.09976 -0.86823,-1.98563 -1.9375,-1.98563 z m 0.90625,1.03125 42.3125,0 c 1.02472,0 1.84375,0.77427 1.84375,1.79813 l -0.96875,23.28125 c 0,1.02387 -0.81904,1.875 -1.84375,1.875 l -40.375,0 c -1.02471,0 -1.84375,-0.85113 -1.84375,-1.875 L 443,159.84375 c 0,-1.02386 0.81903,-1.79813 1.84375,-1.79813 z"
       id="path3800"
       inkscape:connector-curvature="0"
       sodipodi:nodetypes="sccssccssssccssccs" />
    <path
       style="font-size:medium;font-style:normal;font-variant:normal;font-weight:normal;font-stretch:normal;text-indent:0;text-align:start;text-decoration:none;line-height:normal;letter-spacing:normal;word-spacing:normal;text-transform:none;direction:ltr;block-progression:tb;writing-mode:lr-tb;text-anchor:start;baseline-shift:baseline;color:#000000;fill:#000000;fill-opacity:1;stroke:none;stroke-width:5;marker:none;visibility:visible;display:inline;overflow:visible;enable-background:accumulate;font-family:Sans;-inkscape-font-specification:Sans;opacity:0.1"
       id="path181"
       inkscape:connector-curvature="0"
       d="m 458.00076,165 0,14 16,0 z m 2.88,6.09114 5.44,4.94304 -5.44,0 z" />
    <path
       style="font-size:medium;font-style:normal;font-variant:normal;font-weight:normal;font-stretch:normal;text-indent:0;text-align:start;text-decoration:none;line-height:normal;letter-spacing:normal;word-spacing:normal;text-transform:none;direction:ltr;block-progression:tb;writing-mode:lr-tb;text-anchor:start;baseline-shift:baseline;color:#000000;fill:#000000;fill-opacity:1;stroke:none;stroke-width:5;marker:none;visibility:visible;display:inline;overflow:visible;enable-background:accumulate;font-family:Sans;-inkscape-font-specification:Sans;opacity:0.1"
       d="M 16 21 L 16 22 L 30.84375 35 L 32 35 L 16 21 z M 18.875 32.03125 L 18.875 33.03125 L 24.3125 33.03125 L 23.21875 32.03125 L 18.875 32.03125 z "
       transform="translate(442,144)"
       id="path3806" />
    <path
       style="font-size:medium;font-style:normal;font-variant:normal;font-weight:normal;font-stretch:normal;text-indent:0;text-align:start;text-decoration:none;line-height:normal;letter-spacing:normal;word-spacing:normal;text-transform:none;direction:ltr;block-progression:tb;writing-mode:lr-tb;text-anchor:start;baseline-shift:baseline;opacity:0.2;color:#000000;fill:#ffffff;fill-opacity:1;stroke:none;stroke-width:5;marker:none;visibility:visible;display:inline;overflow:visible;enable-background:accumulate;font-family:Sans;-inkscape-font-specification:Sans"
       d="m 460.875,171.09375 0,1 4.34375,3.9375 1.09375,0 -5.4375,-4.9375 z M 458,179 l 0,1 16,0 -1.15625,-1 L 458,179 z"
       id="path3811"
       inkscape:connector-curvature="0" />
  </g>
  <g
     inkscape:label="mimetypes"
     transform="translate(-442,-144)"
     inkscape:groupmode="layer"
     id="layer14" />
  <g
     inkscape:label="emblems"
     transform="translate(-442,-144)"
     inkscape:groupmode="layer"
     id="layer15"
     style="display:inline" />
</svg>
