<?xml version="1.0" encoding="UTF-8" standalone="no"?>
<!-- Created with Inkscape (http://www.inkscape.org/) -->

<svg
   xmlns:dc="http://purl.org/dc/elements/1.1/"
   xmlns:cc="http://creativecommons.org/ns#"
   xmlns:rdf="http://www.w3.org/1999/02/22-rdf-syntax-ns#"
   xmlns:svg="http://www.w3.org/2000/svg"
   xmlns="http://www.w3.org/2000/svg"
   xmlns:xlink="http://www.w3.org/1999/xlink"
   xmlns:sodipodi="http://sodipodi.sourceforge.net/DTD/sodipodi-0.dtd"
   xmlns:inkscape="http://www.inkscape.org/namespaces/inkscape"
   id="svg7384"
   sodipodi:docname="folder-desktop.svg"
   version="1.1"
   inkscape:version="0.48.4 r9939"
   height="48"
   width="48">
  <metadata
     id="metadata90">
    <rdf:RDF>
      <cc:Work
         rdf:about="">
        <dc:format>image/svg+xml</dc:format>
        <dc:type
           rdf:resource="http://purl.org/dc/dcmitype/StillImage" />
        <dc:title>Gnome Symbolic Icon Theme</dc:title>
      </cc:Work>
    </rdf:RDF>
  </metadata>
  <sodipodi:namedview
     inkscape:cy="4.4625231"
     pagecolor="#ffffff"
     borderopacity="1"
     showborder="true"
     inkscape:bbox-paths="false"
     guidetolerance="10"
     inkscape:window-width="1280"
     showguides="true"
     inkscape:object-nodes="true"
     inkscape:snap-bbox="true"
     inkscape:pageshadow="2"
     inkscape:guide-bbox="true"
     inkscape:snap-nodes="true"
     bordercolor="#666666"
     objecttolerance="10"
     id="namedview88"
     showgrid="false"
     inkscape:window-maximized="1"
     inkscape:window-x="0"
     inkscape:snap-global="true"
     inkscape:window-y="24"
     gridtolerance="10"
     inkscape:window-height="1000"
     inkscape:snap-to-guides="true"
     inkscape:current-layer="layer13"
     inkscape:zoom="7.9999995"
     inkscape:cx="23.639998"
     inkscape:snap-grids="true"
     inkscape:pageopacity="1">
    <inkscape:grid
       spacingx="1px"
       spacingy="1px"
       id="grid4866"
       empspacing="2"
       enabled="true"
       type="xygrid"
       snapvisiblegridlinesonly="true"
       visible="true" />
  </sodipodi:namedview>
  <title
     id="title9167">Gnome Symbolic Icon Theme</title>
  <defs
     id="defs7386">
    <linearGradient
       id="linearGradient3842">
      <stop
         id="stop3844"
         offset="0"
         style="stop-color:#6087ba;stop-opacity:1;" />
      <stop
         style="stop-color:#85a5cb;stop-opacity:1;"
         offset="0.5074119"
         id="stop3846" />
      <stop
         id="stop3848"
         offset="1"
         style="stop-color:#99b4d4;stop-opacity:1;" />
    </linearGradient>
    <linearGradient
       id="linearGradient3804">
      <stop
         style="stop-color:#becfe4;stop-opacity:1;"
         offset="0"
         id="stop3806" />
      <stop
         style="stop-color:#becfe4;stop-opacity:0;"
         offset="1"
         id="stop3810" />
    </linearGradient>
    <linearGradient
       id="linearGradient3978">
      <stop
         style="stop-color:#becfe4;stop-opacity:0;"
         offset="0"
         id="stop3980" />
      <stop
         style="stop-color:#becfe4;stop-opacity:1;"
         offset="1"
         id="stop3984" />
    </linearGradient>
    <linearGradient
       id="linearGradient3821">
      <stop
         style="stop-color:#6087ba;stop-opacity:1;"
         offset="0"
         id="stop3823" />
      <stop
         id="stop3829"
         offset="0.57654178"
         style="stop-color:#85a5cb;stop-opacity:1;" />
      <stop
         style="stop-color:#99b4d4;stop-opacity:1;"
         offset="1"
         id="stop3825" />
    </linearGradient>
    <linearGradient
       id="linearGradient3811">
      <stop
         id="stop3813"
         offset="0"
         style="stop-color:#507099;stop-opacity:1;" />
      <stop
         style="stop-color:#7999c2;stop-opacity:1;"
         offset="0.1"
         id="stop3815" />
      <stop
         id="stop3819"
         offset="1"
         style="stop-color:#becfe4;stop-opacity:1;" />
    </linearGradient>
    <linearGradient
       id="linearGradient3767">
      <stop
         style="stop-color:#aec8dc;stop-opacity:1;"
         offset="0"
         id="stop3769" />
      <stop
         id="stop3777"
         offset="0.155"
         style="stop-color:#abc6db;stop-opacity:1;" />
      <stop
         id="stop3775"
         offset="0.83099997"
         style="stop-color:#7fa9c8;stop-opacity:1;" />
      <stop
         style="stop-color:#7599c4;stop-opacity:0.99607843;"
         offset="1"
         id="stop3771" />
    </linearGradient>
    <linearGradient
       inkscape:collect="always"
       xlink:href="#linearGradient3978"
       id="linearGradient3840"
       gradientUnits="userSpaceOnUse"
       x1="24.000002"
       y1="20.169643"
       x2="24.000002"
       y2="13.00059"
       gradientTransform="translate(442,144)" />
    <radialGradient
       inkscape:collect="always"
       xlink:href="#linearGradient3767"
       id="radialGradient3782"
       cx="7.9357204"
       cy="-24.355911"
       fx="7.9357204"
       fy="-24.355911"
       r="24"
       gradientTransform="matrix(0,1.2062971,-3.2912536,0,-67.617741,3.4452919)"
       gradientUnits="userSpaceOnUse"
       spreadMethod="pad" />
    <radialGradient
       inkscape:collect="always"
       xlink:href="#linearGradient3804"
       id="radialGradient3812"
       cx="463.44406"
       cy="147.75865"
       fx="463.44406"
       fy="147.75865"
       r="24"
       gradientTransform="matrix(0,0.15293779,-1.2695525,0,653.01826,86.141386)"
       gradientUnits="userSpaceOnUse" />
    <radialGradient
       inkscape:collect="always"
       xlink:href="#linearGradient3842"
       id="radialGradient3814"
       cx="466.00003"
       cy="169.99817"
       fx="466.00003"
       fy="169.99817"
       r="22.000299"
       gradientTransform="matrix(1.7299411,0,0,0.13076234,-340.15263,135.34573)"
       gradientUnits="userSpaceOnUse" />
    <inkscape:perspective
       sodipodi:type="inkscape:persp3d"
       inkscape:vp_x="0 : 0.5 : 1"
       inkscape:vp_y="0 : 1000 : 0"
       inkscape:vp_z="1 : 0.5 : 1"
       inkscape:persp3d-origin="0.5 : 0.33333333 : 1"
       id="perspective3851" />
    <inkscape:perspective
       sodipodi:type="inkscape:persp3d"
       inkscape:vp_x="0 : 0.5 : 1"
       inkscape:vp_y="0 : 1000 : 0"
       inkscape:vp_z="1 : 0.5 : 1"
       inkscape:persp3d-origin="0.5 : 0.33333333 : 1"
       id="perspective2944" />
    <inkscape:perspective
       sodipodi:type="inkscape:persp3d"
       inkscape:vp_x="0 : 0.5 : 1"
       inkscape:vp_y="0 : 1000 : 0"
       inkscape:vp_z="1 : 0.5 : 1"
       inkscape:persp3d-origin="0.5 : 0.33333333 : 1"
       id="perspective2902" />
    <inkscape:perspective
       id="perspective10"
       inkscape:persp3d-origin="372.04724 : 350.78739 : 1"
       inkscape:vp_z="744.09448 : 526.18109 : 1"
       inkscape:vp_y="0 : 1000 : 0"
       inkscape:vp_x="0 : 526.18109 : 1"
       sodipodi:type="inkscape:persp3d" />
    <linearGradient
       id="linearGradient3756">
      <stop
         id="stop3758"
         offset="0"
         style="stop-color:#818a96;stop-opacity:1;" />
      <stop
         id="stop3760"
         offset="1"
         style="stop-color:#697380;stop-opacity:1;" />
    </linearGradient>
  </defs>
  <g
     inkscape:label="status"
     transform="translate(-442,-144)"
     inkscape:groupmode="layer"
     id="layer9"
     style="display:inline" />
  <g
     inkscape:label="devices"
     transform="translate(-442,-144)"
     inkscape:groupmode="layer"
     id="layer10" />
  <g
     inkscape:label="apps"
     transform="translate(-442,-144)"
     inkscape:groupmode="layer"
     id="layer11" />
  <g
     inkscape:label="actions"
     transform="translate(-442,-144)"
     inkscape:groupmode="layer"
     id="layer12" />
  <g
     inkscape:label="places"
     transform="translate(-442,-144)"
     inkscape:groupmode="layer"
     id="layer13">
    <path
       style="fill:url(#radialGradient3814);fill-opacity:1"
       d="m 445.93039,150 9.13947,0 c 2.8485,0 3.33061,3.92414 7.56441,4.00714 l 23.4354,0 c 1.06927,0 1.93066,0.88595 1.93066,1.98572 l 0,3.47814 c -0.0615,-0.003 -0.11925,-0.018 -0.18164,-0.018 l -43.63732,0 c -0.0624,0 -0.12015,0.0139 -0.18164,0.018 l 0,-7.48527 c 0,-1.09977 0.86139,-1.98573 1.93066,-1.98573 z"
       id="rect4155"
       inkscape:connector-curvature="0"
       sodipodi:nodetypes="sccsscsscss" />
    <path
       style="fill:#000000;fill-opacity:1;opacity:0.02"
       d="M 3.9375 6 C 2.86823 6 2 6.90023 2 8 L 2 15.46875 C 2.06149 15.46465 2.1251 15.4375 2.1875 15.4375 L 45.8125 15.4375 C 45.87489 15.4375 45.9385 15.46575 46 15.46875 L 46 12 C 46 10.90023 45.13177 10 44.0625 10 L 20.625 10 C 16.3912 9.917 15.911 6 13.0625 6 L 3.9375 6 z M 4.375 7 L 12.875 7 C 15.22599 7 16.15883 10.96875 20.78125 10.96875 L 43.15625 10.96875 C 44.17693 10.96875 45 10.94541 45 12.125 L 45 14.46875 C 44.9413 14.46675 44.87206 14.46875 44.8125 14.46875 L 3.1875 14.46875 C 3.1279 14.46875 3.0587 14.46555 3 14.46875 L 3 8.5625 C 3 7.69497 3.35432 7 4.375 7 z "
       transform="translate(442,144)"
       id="path3816" />
    <path
       style="fill:url(#radialGradient3782);fill-opacity:1"
       d="m 1.9375,13.015625 c -1.06927,0 -1.9375,0.86899 -1.9375,1.96875 0,0 0.16794443,9.356258 0.5,13.515625 0.33416878,4.185837 1.50025,11.5 1.50025,11.5 0.1309732,1.091943 0.86823,2 1.9375,2 l 40.1245,0 c 1.06927,0 1.9375,-0.90023 1.9375,-2 0,0 1.166081,-7.314162 1.50025,-11.5 0.332056,-4.159367 0.5,-13.515625 0.5,-13.515625 0.04393,-1.098882 -0.86823,-1.96875 -1.9375,-1.96875 z"
       id="path4170"
       inkscape:connector-curvature="0"
       sodipodi:nodetypes="scsssccssss"
       transform="translate(442,144)" />
    <path
       style="opacity:0.69999999999999996;fill:url(#radialGradient3812);fill-opacity:1"
       d="M 443.9375,157.01437 C 442.86823,157.01437 442,157.90024 442,159 l 1,25 c 0,1.09977 0.86823,2 1.9375,2 l 42.125,0 c 1.06927,0 1.9375,-0.90023 1.9375,-2 l 1,-25 c 0,-1.09976 -0.86823,-1.98563 -1.9375,-1.98563 z m 0.90625,1.03125 42.3125,0 c 1.02472,0 1.84375,0.77427 1.84375,1.79813 l -0.96875,23.28125 c 0,1.02387 -0.81904,1.875 -1.84375,1.875 l -40.375,0 c -1.02471,0 -1.84375,-0.85113 -1.84375,-1.875 L 443,159.84375 c 0,-1.02386 0.81903,-1.79813 1.84375,-1.79813 z"
       id="path3800"
       inkscape:connector-curvature="0"
       sodipodi:nodetypes="sccssccssssccssccs" />
    <path
       style="opacity:0.1;fill:#000000;fill-opacity:1;stroke:none"
       d="M 17.875 21 C 16.83625 21 16 21.83625 16 22.875 L 16 33.125 C 16 34.16375 16.83625 35 17.875 35 L 30.125 35 C 31.16375 35 32 34.16375 32 33.125 L 32 22.875 C 32 21.83625 31.16375 21 30.125 21 L 17.875 21 z M 17.5 22 C 17.776142 22 18 22.223858 18 22.5 C 18 22.776142 17.776142 23 17.5 23 C 17.223858 23 17 22.776142 17 22.5 C 17 22.223858 17.223858 22 17.5 22 z M 17 24 L 31 24 L 31 32.96875 C 31 33.54748 30.54748 34 29.96875 34 L 18.03125 34 C 17.45252 34 17 33.54748 17 32.96875 L 17 24 z M 19 31 L 18 33 L 30 33 L 29 31 L 19 31 z "
       transform="translate(442,144)"
       id="rect3034" />
    <path
       style="opacity:0.1;fill:#000000;fill-opacity:1;stroke:none"
       d="M 17.875 21 C 16.83625 21 16 21.83625 16 22.875 L 16 23.875 C 16 23.095938 16.482832 22.440137 17.15625 22.15625 C 17.246732 22.065768 17.361929 22 17.5 22 C 17.546646 22 17.582165 22.019302 17.625 22.03125 C 17.645561 22.036985 17.668099 22.023044 17.6875 22.03125 C 17.751108 22.024784 17.80963 22 17.875 22 L 30.125 22 C 31.16375 22 32 22.83625 32 23.875 L 32 22.875 C 32 21.83625 31.16375 21 30.125 21 L 17.875 21 z M 17.5 23 C 17.22386 23 17 23.22386 17 23.5 C 17 23.77614 17.22386 24 17.5 24 C 17.77614 24 18 23.77614 18 23.5 C 18 23.22386 17.77614 23 17.5 23 z M 19 31 L 18 33 L 18.5 33 L 19 32 L 29 32 L 29.5 33 L 30 33 L 29 31 L 19 31 z M 17 32.96875 L 17 33.96875 C 17 34.54748 17.45252 35 18.03125 35 L 29.96875 35 C 30.54748 35 31 34.54748 31 33.96875 L 31 32.96875 C 31 33.536913 30.563532 33.983884 30 34 C 29.989519 34.0003 29.979317 34 29.96875 34 L 18.03125 34 C 18.020683 34 18.010481 34.0003 18 34 C 17.436468 33.983884 17 33.536913 17 32.96875 z "
       transform="translate(442,144)"
       id="path3825" />
    <path
       style="opacity:0.2;fill:#ffffff;fill-opacity:1;stroke:none"
       d="m 459.5,166.03125 c -0.12228,0.0249 -0.23151,0.0777 -0.34375,0.125 C 459.06577,166.24673 459,166.36193 459,166.5 c 0,0.27614 0.22386,0.5 0.5,0.5 0.27614,0 0.5,-0.22386 0.5,-0.5 0,-0.20711 -0.13304,-0.39285 -0.3125,-0.46875 -0.0194,-0.008 -0.0419,0.006 -0.0625,0 -0.0414,0.006 -0.0845,-0.008 -0.125,0 z M 459,168 l 0,1 14,0 0,-1 -13.5,0 -0.5,0 z m 1.5,9 -0.5,1 c 0.0105,3e-4 0.0207,0 0.0313,0 l 11.9375,0 c 0.0106,0 0.0208,3e-4 0.0313,0 l -0.5,-1 -11,0 z m -2.5,0.125 0,1 c 0,1.03875 0.83625,1.875 1.875,1.875 l 12.25,0 c 1.03875,0 1.875,-0.83625 1.875,-1.875 l 0,-1 c 0,1.03875 -0.83625,1.875 -1.875,1.875 l -0.15625,0 -11.9375,0 -0.15625,0 C 458.83625,179 458,178.16375 458,177.125 z"
       id="path3830"
       inkscape:connector-curvature="0" />
  </g>
  <g
     inkscape:label="mimetypes"
     transform="translate(-442,-144)"
     inkscape:groupmode="layer"
     id="layer14" />
  <g
     inkscape:label="emblems"
     transform="translate(-442,-144)"
     inkscape:groupmode="layer"
     id="layer15"
     style="display:inline" />
</svg>
